<svg width="68" height="68" viewBox="0 0 68 68" fill="none" xmlns="http://www.w3.org/2000/svg">
<rect x="0.5" y="0.5" width="67" height="67" rx="33.5" fill="#F2F6FF"/>
<rect x="0.5" y="0.5" width="67" height="67" rx="33.5" stroke="#78A5FF"/>
<path d="M37.8672 39H0.867188V42H37.8672V39Z" fill="#78A5FF"/>
<path d="M33.1645 10.5107C22.29 10.5107 12.7732 17.7158 9.52637 27.6584H12.3644L17.2822 27.6601C20.235 22.0971 26.509 17.8074 33.1637 17.8074C42.8175 17.8074 50.859 26.2695 50.859 36.0779C50.859 45.8862 42.5247 53.3492 32.8701 53.3492C26.8084 53.3492 21.4719 50.1776 18.3365 45.4153H10.2992C14.0779 54.2753 22.7596 60.5107 32.8701 60.5107C46.453 60.5107 57.9746 49.8119 57.9746 36.0099C57.9746 22.2104 46.7474 10.5107 33.1645 10.5107ZM38.9945 16.1653C38.9442 16.3691 38.8163 16.5442 38.639 16.6521C38.4616 16.7601 38.2493 16.792 38.0488 16.741C35.0303 15.9798 31.6254 16.0073 28.6069 16.7685C28.5075 16.7942 28.4041 16.7997 28.3027 16.7846C28.2012 16.7695 28.1037 16.7341 28.0158 16.6805C27.9279 16.6269 27.8512 16.5561 27.7904 16.4723C27.7295 16.3884 27.6856 16.2932 27.6612 16.192C27.636 16.091 27.6308 15.9859 27.6458 15.8828C27.6609 15.7797 27.6958 15.6807 27.7488 15.5914C27.8017 15.5022 27.8715 15.4245 27.9541 15.3628C28.0368 15.3011 28.1306 15.2566 28.2303 15.232C31.4964 14.4084 35.1601 14.3809 38.4263 15.2045C38.6268 15.2556 38.7992 15.3855 38.9056 15.5656C39.012 15.7458 39.0445 15.9615 38.9945 16.1653Z" fill="#C7D9FF"/>
<path d="M33.2549 17.752C42.9142 17.7522 50.7314 25.7035 50.7314 35.5C50.7314 45.2947 42.9133 53.2469 33.2549 53.2471C27.6237 53.2471 22.63 50.5303 19.4365 46.3379L18.9375 45.6836H28.3311L28.417 45.7256C29.8953 46.4563 31.5457 46.8769 33.2969 46.877C39.471 46.877 44.4892 41.7897 44.4893 35.5C44.4893 29.4076 39.7805 24.4428 33.8721 24.1387L33.2969 24.124C30.7049 24.1197 28.159 25.3967 26.1191 27.1396L26.0049 27.2383H17.9824L18.3555 26.6191C21.4169 21.5453 26.9238 17.752 33.2549 17.752Z" fill="#78A5FF" stroke="#78A5FF" stroke-width="0.81597"/>
<path d="M29.4678 29.6924C30.7446 29.5226 31.7812 29.8708 32.5273 30.5215C33.2665 31.1662 33.6981 32.0876 33.8164 33.0342C33.9346 33.9805 33.7428 34.9777 33.2041 35.7793C32.6601 36.5886 31.7751 37.1791 30.5566 37.3174C29.2685 37.4633 28.2256 37.1107 27.4756 36.4648C26.7317 35.8241 26.298 34.9143 26.1816 33.9766C26.0654 33.0389 26.2637 32.0521 26.8086 31.2539C27.358 30.4492 28.2474 29.855 29.4678 29.6924Z" fill="#E4EDFF" stroke="#78A5FF" stroke-width="0.7"/>
<path d="M12.1455 32.3594C15.3569 32.3319 17.7548 32.3201 21.2158 33.0703C22.8081 33.4153 23.7446 33.9946 24.2256 34.8691C24.6911 35.7154 24.7762 36.9181 24.4658 38.6504H1.46484L1.35449 33.1182C3.11672 32.6596 5.89853 32.4633 7.72168 32.3877H7.72461C7.97507 32.3768 8.72996 32.3694 9.43262 32.3652C9.78192 32.3631 10.1154 32.3622 10.3613 32.3613C10.484 32.3609 10.5849 32.3605 10.6553 32.3604C10.6905 32.3603 10.7186 32.3604 10.7373 32.3604C10.7465 32.3603 10.754 32.3594 10.7588 32.3594H12.1455Z" fill="#E4EDFF" stroke="#78A5FF" stroke-width="0.7"/>
</svg>
