<svg width="68" height="68" viewBox="0 0 68 68" fill="none" xmlns="http://www.w3.org/2000/svg">
<rect x="0.5" y="0.5" width="67" height="67" rx="33.5" fill="#F2F6FF"/>
<rect x="0.5" y="0.5" width="67" height="67" rx="33.5" stroke="#78A5FF"/>
<g clip-path="url(#clip0_1807_8194)">
<path d="M38.5428 25.284L23.3564 40.4704L29.5291 46.643L44.7153 31.4566C44.8872 31.2848 44.9648 31.0406 44.919 30.8019C44.5173 28.7084 41.2909 25.4821 39.1974 25.0803C38.9588 25.0345 38.7146 25.1122 38.5428 25.284Z" fill="white"/>
<path d="M44.7197 31.4557L29.53 46.6455L23.3574 40.4729L24.5405 39.2898C31.9425 40.406 40.8104 31.9907 43.9173 28.75C44.4317 29.4598 44.8021 30.18 44.9204 30.8024C44.9615 31.039 44.8895 31.2859 44.7197 31.4557Z" fill="#C7D9FF"/>
<path d="M44.7197 31.4559L29.53 46.6457L23.3574 40.4731L24.5405 39.29C28.1412 39.8352 32.0865 38.1223 35.5534 35.8488C39.2056 33.4414 42.3227 30.4168 43.9173 28.7502C44.4317 29.46 44.8021 30.1802 44.9204 30.8026C44.9615 31.0392 44.8895 31.2861 44.7197 31.4559ZM45.8308 26.7441L43.8813 28.6936C43.192 27.7471 42.2558 26.8109 41.3094 26.1216L43.2589 24.1721C43.5418 23.8892 43.9996 23.8841 44.2876 24.1721L45.8308 25.7153C46.1137 25.9982 46.1137 26.4612 45.8308 26.7441Z" fill="#C7D9FF"/>
<path d="M33.9734 29.8525L23.3564 40.4701L29.5287 46.6431L36.5454 39.6264L33.9734 29.8525Z" fill="#E4EDFF"/>
<path d="M36.5462 39.6294L29.53 46.6456L23.3574 40.473L24.5405 39.2899C28.1412 39.8351 32.0865 38.1222 35.5534 35.8486L36.5462 39.6294Z" fill="#C7D9FF"/>
<path d="M21.5563 39.6984L20.5275 40.7272C20.2434 41.0112 20.2434 41.4719 20.5275 41.7559L28.2433 49.4717C28.5273 49.7558 28.988 49.7558 29.272 49.4717L30.3008 48.4429C30.5849 48.1589 30.5849 47.6982 30.3008 47.4142L22.585 39.6984C22.301 39.4143 21.8403 39.4143 21.5563 39.6984Z" fill="white"/>
<path d="M22.5845 43.8138L17.0625 49.3359L20.6634 52.9367L26.1854 47.4146L22.5845 43.8138Z" fill="#C7D9FF"/>
<path d="M21.9513 56.2782C21.6684 56.5611 21.2981 56.7051 20.9175 56.7051C20.5471 56.7051 20.1768 56.5611 19.8938 56.2782L13.7212 50.1055C13.1502 49.5346 13.1502 48.619 13.7212 48.048C14.0042 47.7651 14.3745 47.6211 14.7448 47.6211C15.1152 47.6211 15.4906 47.76 15.7787 48.048L21.9513 54.2206C22.5172 54.7864 22.5172 55.7123 21.9513 56.2782Z" fill="white"/>
<path d="M55.1614 14.837C54.9086 14.5843 54.4992 14.5843 54.2464 14.837L45.0567 24.0267L44.7443 23.7141C44.2236 23.1941 43.321 23.1944 42.801 23.7145L41.2299 25.2855C40.5671 24.8598 39.9085 24.5577 39.3189 24.4446C38.8665 24.3565 38.4077 24.5027 38.0849 24.826C36.211 26.6999 25.1803 37.7308 23.3562 39.5549L23.042 39.2407C22.5232 38.7213 21.6171 38.7216 21.0983 39.241L20.0698 40.2695C19.8098 40.5292 19.6667 40.8742 19.6667 41.2416C19.6667 41.6087 19.8099 41.9541 20.0696 42.2135L21.6696 43.8135L17.064 48.419L16.2356 47.5906C15.4447 46.7992 14.0615 46.791 13.2631 47.5906C12.4435 48.4102 12.4435 49.7434 13.2631 50.5631L19.4358 56.7358C20.2683 57.5683 21.5948 57.5478 22.4082 56.7358C23.2277 55.9162 23.2277 54.5829 22.4082 53.7633L21.5796 52.9347L26.1852 48.3292L27.7853 49.9293C28.0447 50.189 28.39 50.3318 28.7572 50.3318C29.1243 50.3318 29.4697 50.189 29.7291 49.9293L30.7578 48.9006C31.0175 48.6412 31.1603 48.2958 31.1603 47.9287C31.1603 47.5616 31.0175 47.2162 30.7578 46.9568L30.4436 46.6426L37.0028 40.0834L45.1726 31.9136C45.4971 31.5891 45.6399 31.1281 45.5542 30.6795C45.4412 30.0912 45.1404 29.4344 44.7162 28.7732L46.2881 27.2013C46.8237 26.6654 46.8233 25.7934 46.2878 25.2579L45.9717 24.9417L55.1614 15.752C55.4141 15.4992 55.4141 15.0898 55.1614 14.837ZM21.4934 55.8204C21.1904 56.1221 20.6613 56.1306 20.3507 55.8207L14.178 49.648C13.8576 49.3276 13.8576 48.8259 14.1783 48.5052C14.5066 48.1769 15.0154 48.2005 15.3204 48.5056C24.662 57.8526 15.3277 48.5136 21.4931 54.6782C21.8082 54.9932 21.8082 55.5056 21.4934 55.8204ZM25.27 47.4143L20.6646 52.0197L17.9789 49.334L22.5845 44.7284L25.27 47.4143ZM29.8427 47.9855L28.814 49.0142C28.7982 49.0297 28.7793 49.0376 28.7571 49.0376L20.9845 41.2985V41.1847L22.0132 40.156L22.1269 40.1557C23.9303 41.9591 20.5021 38.5312 29.8426 47.8718C29.8696 47.8986 29.8695 47.9587 29.8427 47.9855ZM29.5286 45.7274C29.1072 45.306 24.7872 40.9861 24.2711 40.4699L26.5936 38.1474L27.4219 38.9759C27.6747 39.2287 28.0841 39.2287 28.3369 38.9759C28.5897 38.7235 28.5897 38.3137 28.3369 38.0609L27.5086 37.2324L29.6799 35.0611L30.5085 35.8894C30.7612 36.1421 31.1707 36.1421 31.4235 35.8894C31.6762 35.6367 31.6762 35.2269 31.4235 34.9744L30.5949 34.1461L33.6344 31.1066L35.8249 39.4311L29.5286 45.7274ZM44.2574 30.9986L36.8843 38.3717L34.6938 30.047L36.5797 28.161L37.4083 28.9895C37.661 29.2423 38.0705 29.2423 38.3233 28.9895C38.576 28.7368 38.576 28.3273 38.3233 28.0745L37.4947 27.246L38.9997 25.741C39.0168 25.7236 39.0386 25.7132 39.0749 25.7154C40.8891 26.0635 43.9325 29.0966 44.283 30.9225C44.2881 30.9494 44.2789 30.9771 44.2574 30.9986ZM45.3727 26.2866L43.9402 27.7191C43.4868 27.1753 42.8873 26.5664 42.283 26.0623L43.7159 24.6295H43.8296C43.9351 24.7349 45.4552 26.2554 45.3728 26.1729C45.403 26.2032 45.4027 26.2562 45.3727 26.2866Z" fill="#78A5FF"/>
</g>
<defs>
<clipPath id="clip0_1807_8194">
<rect width="44" height="44" fill="white" transform="translate(12 14)"/>
</clipPath>
</defs>
</svg>
