<svg width="68" height="68" viewBox="0 0 68 68" fill="none" xmlns="http://www.w3.org/2000/svg">
<rect x="0.5" y="0.5" width="67" height="67" rx="33.5" fill="white"/>
<rect x="0.5" y="0.5" width="67" height="67" rx="33.5" stroke="#DFE3E7"/>
<path d="M34 12C21.2468 12 10.915 22.3402 10.915 35.0892C10.915 47.8383 21.251 58.1742 34 58.1742C46.7491 58.1742 57.0893 47.8383 57.0893 35.0892C57.0893 22.3402 46.7491 12 34 12ZM34 51.2555C25.0732 51.2555 17.8338 44.0161 17.8338 35.0892C17.8338 26.1623 25.0689 18.923 34 18.923C42.9311 18.923 50.1663 26.1623 50.1663 35.0892C50.1663 44.0161 42.9269 51.2555 34 51.2555Z" fill="#BDC4CF"/>
<path d="M25.4443 36.4004H42.5518C42.9203 36.4004 43.1616 36.5762 43.2256 36.7148L43.333 36.9482H43.3359L51.3779 54.5996H16.6221L24.7705 36.7148L24.7725 36.71C24.8316 36.5756 25.066 36.4004 25.4443 36.4004Z" fill="#DFE3E7" stroke="#BDC4CF" stroke-width="0.8"/>
<path d="M43.5996 60.4004V65.333C43.5996 65.7699 43.3083 66.0137 43.0801 66.0137H43.0449L43.0107 66.0195L34.124 67.5938L24.9805 66.1846L24.9502 66.1797H24.9199C24.6917 66.1797 24.4004 65.9369 24.4004 65.5V60.4004H43.5996Z" fill="#DFE3E7" stroke="#DFE3E7" stroke-width="0.8"/>
<path d="M30.6797 33.3008H37.3193C38.073 33.3008 38.6836 33.9104 38.6836 34.6641V35.6221H29.3164V34.6641C29.3164 33.9104 29.9261 33.3008 30.6797 33.3008Z" fill="#BDC4CF" stroke="#BDC4CF" stroke-width="0.8"/>
<path d="M55.1746 34.1484H52.2004C51.6436 34.1484 51.6436 33.3047 52.2004 33.3047H55.1746C55.7315 33.3047 55.7315 34.1484 55.1746 34.1484ZM15.8011 34.1484H12.8268C12.27 34.1484 12.27 33.3047 12.8268 33.3047H15.8011C16.3579 33.3047 16.3579 34.1484 15.8011 34.1484Z" fill="#E8EBEE"/>
<path d="M36.9617 18.0195H31.0386C30.6635 18.0195 30.3594 18.3236 30.3594 18.6987V19.4666C30.3594 19.8417 30.6635 20.1458 31.0386 20.1458H36.9617C37.3368 20.1458 37.6409 19.8417 37.6409 19.4666V18.6987C37.6409 18.3236 37.3368 18.0195 36.9617 18.0195Z" fill="#DFE3E7"/>
<path d="M51.5977 55.4004L51.5781 59.3867V59.3887C51.5779 59.5114 51.4805 59.5996 51.376 59.5996H16.6016C16.4976 59.5996 16.4016 59.5124 16.4004 59.3906L16.4199 55.4004H51.5977Z" fill="#BDC4CF" stroke="#BDC4CF" stroke-width="0.8"/>
</svg>
