<svg width="68" height="68" viewBox="0 0 68 68" fill="none" xmlns="http://www.w3.org/2000/svg">
<rect x="0.5" y="0.5" width="67" height="67" rx="33.5" fill="white"/>
<rect x="0.5" y="0.5" width="67" height="67" rx="33.5" stroke="#DFE3E7"/>
<path d="M57 20.9961H11V46.9961C11 50.3098 13.6863 52.9961 17 52.9961H51C54.3137 52.9961 57 50.3098 57 46.9961V20.9961Z" fill="#F0F2F5"/>
<path d="M57 46.9961H11V48.9961C11 51.2052 12.7909 52.9961 15 52.9961H53C55.2091 52.9961 57 51.2052 57 48.9961V46.9961Z" fill="#DFE3E7"/>
<path d="M57 25.5294C57 23.0257 54.9704 20.9961 52.4667 20.9961H15.5333C13.0296 20.9961 11 23.0257 11 25.5294V48.4628C11 50.9665 13.0296 52.9961 15.5333 52.9961H52.4667C54.9704 52.9961 57 50.9665 57 48.4628V25.5294Z" stroke="#BDC4CF" stroke-width="0.8" stroke-miterlimit="10" stroke-linecap="round" stroke-linejoin="round"/>
<path d="M36.6657 32.0335H41.999V37.3669H36.6657V42.7002H31.3324V37.3669H25.999V32.0335H31.3324V26.7002H36.6657V32.0335Z" fill="#BDC4CF"/>
<path d="M39.0068 12.4033C41.8532 12.4033 44.3466 14.3099 45.0928 17.0566L46.2324 21.251H42.3721L41.2334 18.1055C40.9605 17.1008 40.0479 16.4033 39.0068 16.4033H28.9932C27.9521 16.4033 27.0405 17.1008 26.7676 18.1055L25.6279 21.251H21.7686L22.9072 17.0576C23.6532 14.3105 26.1466 12.4033 28.9932 12.4033H39.0068Z" fill="#BDC4CF"/>
</svg>
