<svg width="68" height="68" viewBox="0 0 68 68" fill="none" xmlns="http://www.w3.org/2000/svg">
<rect x="0.5" y="0.5" width="67" height="67" rx="33.5" fill="white"/>
<rect x="0.5" y="0.5" width="67" height="67" rx="33.5" stroke="#DFE3E7"/>
<path d="M44.4903 25.8433C45.7956 25.8433 47.0474 25.3247 47.9704 24.4017C48.8934 23.4787 49.412 22.2269 49.412 20.9216C49.412 19.6162 48.8934 18.3644 47.9704 17.4414C47.0474 16.5184 45.7956 15.9998 44.4903 15.9998C43.1849 15.9998 41.9331 16.5184 41.0101 17.4414C40.0871 18.3644 39.5685 19.6162 39.5685 20.9216C39.5685 22.2269 40.0871 23.4787 41.0101 24.4017C41.9331 25.3247 43.1849 25.8433 44.4903 25.8433ZM39.7698 25.8942C39.6494 25.4131 39.369 24.9871 38.9748 24.6863C38.5805 24.3854 38.0957 24.2274 37.5998 24.2383C35.4036 24.2405 31.5122 24.4789 28.8982 29.7069C25.6171 36.2692 25.6171 40.6441 26.7108 42.8315C27.7892 44.9905 28.9026 46.1127 29.9919 46.6901V55.9561C29.9919 56.5363 30.2224 57.0926 30.6326 57.5029C31.0428 57.9131 31.5992 58.1436 32.1794 58.1436C32.7595 58.1436 33.3159 57.9131 33.7261 57.5029C34.1363 57.0926 34.3668 56.5363 34.3668 55.9561V47.1517C34.3703 42.5456 34.9133 37.4112 35.9936 34.3903C36.276 33.6009 37.2229 33.7441 37.4262 34.5575L37.578 35.1645C37.8339 36.1861 38.5623 37.0239 39.5423 37.4132L44.4903 39.395C45.0289 39.6106 45.6311 39.6033 46.1644 39.3748C46.6977 39.1463 47.1184 38.7153 47.3339 38.1766C47.5494 37.638 47.5422 37.0358 47.3137 36.5025C47.0852 35.9692 46.6542 35.5485 46.1155 35.333L41.686 33.5612L39.7698 25.8942Z" fill="#F0F2F5" stroke="#BDC4CF" stroke-width="0.8"/>
<path d="M44.5684 44.3535C44.5682 44.0599 44.6517 43.8915 44.7882 43.7527C44.9819 43.5721 45.2152 43.4749 45.4546 43.4749C45.694 43.4749 45.9274 43.5721 46.1212 43.7527C46.2577 43.8893 46.341 44.0599 46.341 44.3512V56.9369C46.341 57.3895 46.4811 57.8236 46.7304 58.1437C46.9797 58.4638 47.3179 58.6436 47.6705 58.6436C48.0231 58.6436 48.3613 58.4638 48.6106 58.1437C48.8599 57.8236 49 57.3895 49 56.9369V44.7331C49 43.2995 48.4824 42.1754 47.7645 41.4517C47.1023 40.7965 46.2906 40.6436 45.4546 40.6436C44.6186 40.6436 43.8053 40.7965 43.1432 41.4517C42.7542 41.8394 42.4404 42.3374 42.2264 42.9066C42.0124 43.4759 41.9953 43.7214 42.0008 44.3535C42.0008 44.8246 41.9933 45.338 42.2741 45.6985C42.555 46.0591 42.8397 46.2067 43.2369 46.2067C43.6342 46.2067 43.9943 46.1536 44.3371 45.7146C44.5684 45.4185 44.5687 44.9495 44.5684 44.3535Z" fill="#BDC4CF"/>
<path d="M13.3398 36.5665C12.6978 36.7115 12.2682 37.3279 12.3808 37.942C12.4922 38.5567 13.1034 38.939 13.7442 38.7945L16.0341 38.2771L15.5239 39.3733C15.3446 39.7604 15.3893 40.1989 15.643 40.5202C15.7604 40.6745 15.9244 40.7927 16.1178 40.8625C16.3111 40.9323 16.5266 40.9511 16.7414 40.9167L21.2821 40.1041C21.9283 39.9881 22.3861 39.3905 22.3042 38.7692C22.2223 38.1479 21.6321 37.739 20.9867 37.8535L18.5598 38.2896L19.1211 37.0819C19.3058 36.6854 19.2537 36.2359 18.9876 35.9139C18.864 35.7587 18.6919 35.6423 18.4908 35.578C18.2896 35.5137 18.0673 35.5039 17.849 35.5498L13.3398 36.5665Z" fill="#E8EBEE"/>
<path d="M12.2543 20.7133C12.4619 20.7403 12.6621 20.8066 12.8434 20.9084L21.5631 25.8004C21.8243 25.9471 22.0373 26.1623 22.1774 26.4213C22.3175 26.6802 22.379 26.9722 22.3547 27.2633C22.3304 27.5543 22.2214 27.8326 22.0402 28.0657C21.859 28.2987 21.6131 28.4771 21.3311 28.58L18.5677 29.5869L23.4517 32.4278C23.7995 32.6454 24.0466 32.9853 24.1408 33.3755C24.2351 33.7658 24.1691 34.1759 23.9567 34.5192C23.7444 34.8625 23.4024 35.1121 23.003 35.2153C22.6036 35.3185 22.178 35.2672 21.8162 35.0722L14.1027 30.5885C13.8455 30.439 13.6369 30.2224 13.5008 29.9636C13.3646 29.7049 13.3065 29.4143 13.333 29.1253C13.3595 28.8364 13.4696 28.5607 13.6506 28.3299C13.8317 28.0991 14.0763 27.9225 14.3565 27.8204L17.057 26.836L11.2484 23.5789C10.8823 23.3733 10.6152 23.0354 10.5058 22.6396C10.3965 22.2437 10.4538 21.8224 10.6653 21.4683C10.8768 21.1141 11.2251 20.8562 11.6336 20.7512C11.8358 20.6992 12.0468 20.6863 12.2543 20.7133Z" fill="#E8EBEE"/>
</svg>
