<svg width="20" height="20" viewBox="0 0 20 20" fill="none" xmlns="http://www.w3.org/2000/svg">
<path d="M3.30877 17.8882C3.30842 18.2196 3.57677 18.4885 3.90814 18.4889C4.23951 18.4892 4.50842 18.2209 4.50877 17.8895L3.90877 17.8889L3.30877 17.8882ZM3.91667 10.3818L4.51667 10.3824V10.3818L3.91667 10.3818ZM2.80671 5.59275L3.3597 5.35994L3.35966 5.35984L2.80671 5.59275ZM6.75 5.2875C7.08137 5.2875 7.35 5.01887 7.35 4.6875C7.35 4.35613 7.08137 4.0875 6.75 4.0875V4.6875V5.2875ZM15.3504 17.8882C15.3501 18.2196 15.6184 18.4885 15.9498 18.4889C16.2812 18.4892 16.5501 18.2209 16.5504 17.8895L15.9504 17.8889L15.3504 17.8882ZM15.9583 10.3818L16.5583 10.3824V10.3818L15.9583 10.3818ZM17.0683 5.59275L16.5153 5.35984L16.5153 5.35994L17.0683 5.59275ZM13.125 4.0875C12.7936 4.0875 12.525 4.35613 12.525 4.6875C12.525 5.01887 12.7936 5.2875 13.125 5.2875V4.6875V4.0875ZM11.3921 17.888C11.3916 18.2194 11.6598 18.4884 11.9912 18.4889C12.3226 18.4894 12.5916 18.2211 12.5921 17.8898L11.9921 17.8889L11.3921 17.888ZM7.3921 17.888C7.39161 18.2194 7.65984 18.4884 7.99121 18.4889C8.32258 18.4894 8.59161 18.2211 8.5921 17.8898L7.9921 17.8889L7.3921 17.888ZM18.5 18.6C18.8314 18.6 19.1 18.3314 19.1 18C19.1 17.6686 18.8314 17.4 18.5 17.4V18V18.6ZM1.5 17.4C1.16863 17.4 0.9 17.6686 0.9 18C0.9 18.3314 1.16863 18.6 1.5 18.6V18V17.4ZM17.3634 4.89201L16.8105 4.6591L17.3634 4.89201ZM11.9985 13.564L12.5985 13.5649L11.9985 13.564ZM2.51155 4.89201L1.9586 5.12492L2.51155 4.89201ZM3.90877 17.8889L4.50877 17.8895L4.51667 10.3824L3.91667 10.3818L3.31667 10.3812L3.30877 17.8882L3.90877 17.8889ZM3.91667 10.3818L4.51667 10.3818C4.51672 8.38064 4.10724 7.13554 3.3597 5.35994L2.80671 5.59275L2.25372 5.82556C2.97144 7.53033 3.31672 8.60671 3.31667 10.3818L3.91667 10.3818ZM2.80671 5.59275L3.35966 5.35984L3.0645 4.6591L2.51155 4.89201L1.9586 5.12492L2.25376 5.82566L2.80671 5.59275ZM2.64732 4.6875V5.2875H6.75V4.6875V4.0875H2.64732V4.6875ZM15.9504 17.8889L16.5504 17.8895L16.5583 10.3824L15.9583 10.3818L15.3583 10.3812L15.3504 17.8882L15.9504 17.8889ZM15.9583 10.3818L16.5583 10.3818C16.5583 8.60671 16.9036 7.53033 17.6213 5.82556L17.0683 5.59275L16.5153 5.35994C15.7678 7.13554 15.3583 8.38064 15.3583 10.3818L15.9583 10.3818ZM17.0683 5.59275L17.6212 5.82566L17.9164 5.12492L17.3634 4.89201L16.8105 4.6591L16.5153 5.35984L17.0683 5.59275ZM17.2277 4.6875V4.0875H13.125V4.6875V5.2875H17.2277V4.6875ZM11.9921 17.8889L12.5921 17.8898L12.5985 13.5649L11.9985 13.564L11.3985 13.5631L11.3921 17.888L11.9921 17.8889ZM10.9985 12.5625V11.9625H8.99852V12.5625V13.1625H10.9985V12.5625ZM7.99852 13.561L7.39852 13.5601L7.3921 17.888L7.9921 17.8889L8.5921 17.8898L8.59852 13.5619L7.99852 13.561ZM18.5 18V17.4H1.5V18V18.6H18.5V18ZM10 3.1875H9.4V4.6875H10H10.6V3.1875H10ZM10 4.6875H9.4V6.1875H10H10.6V4.6875H10ZM10 4.6875V5.2875H11.5V4.6875V4.0875H10V4.6875ZM10 4.6875V4.0875H8.5V4.6875V5.2875H10V4.6875ZM7.75 1.5V2.1H12.125V1.5V0.9H7.75V1.5ZM13.125 2.5H12.525V6.875H13.125H13.725V2.5H13.125ZM12.125 7.875V7.275H7.75V7.875V8.475H12.125V7.875ZM6.75 6.875H7.35V2.5H6.75H6.15V6.875H6.75ZM7.75 1.5V0.9C6.86634 0.9 6.15 1.61634 6.15 2.5H6.75H7.35C7.35 2.27909 7.52909 2.1 7.75 2.1V1.5ZM17.375 4.83482H17.975C17.975 4.42209 17.6404 4.0875 17.2277 4.0875V4.6875V5.2875C16.9777 5.2875 16.775 5.08483 16.775 4.83482H17.375ZM17.3634 4.89201L17.9164 5.12492C17.9551 5.03309 17.975 4.93446 17.975 4.83482H17.375H16.775C16.775 4.77447 16.7871 4.71472 16.8105 4.6591L17.3634 4.89201ZM7.75 7.875V7.275C7.52909 7.275 7.35 7.09591 7.35 6.875H6.75H6.15C6.15 7.75866 6.86634 8.475 7.75 8.475V7.875ZM2.5 4.83482H3.1C3.1 5.08483 2.89733 5.2875 2.64732 5.2875V4.6875V4.0875C2.23459 4.0875 1.9 4.42209 1.9 4.83482H2.5ZM12.125 1.5V2.1C12.3459 2.1 12.525 2.27909 12.525 2.5H13.125H13.725C13.725 1.61634 13.0087 0.9 12.125 0.9V1.5ZM11.9985 13.564L12.5985 13.5649C12.5998 12.6803 11.8831 11.9625 10.9985 11.9625V12.5625V13.1625C11.2197 13.1625 11.3988 13.3419 11.3985 13.5631L11.9985 13.564ZM13.125 6.875H12.525C12.525 7.09591 12.3459 7.275 12.125 7.275V7.875V8.475C13.0087 8.475 13.725 7.75866 13.725 6.875H13.125ZM8.99852 12.5625V11.9625C8.11579 11.9625 7.39983 12.6774 7.39852 13.5601L7.99852 13.561L8.59852 13.5619C8.59885 13.3412 8.77784 13.1625 8.99852 13.1625V12.5625ZM2.51155 4.89201L3.0645 4.6591C3.08793 4.71473 3.1 4.77447 3.1 4.83482H2.5H1.9C1.9 4.93446 1.91992 5.03309 1.9586 5.12492L2.51155 4.89201Z" fill="#292D32"/>
</svg>
