<svg width="68" height="68" viewBox="0 0 68 68" fill="none" xmlns="http://www.w3.org/2000/svg">
<rect x="0.5" y="0.5" width="67" height="67" rx="33.5" fill="#F2F6FF"/>
<rect x="0.5" y="0.5" width="67" height="67" rx="33.5" stroke="#78A5FF"/>
<path d="M45.5783 26.7067C46.8836 26.7067 48.1355 26.1881 49.0585 25.2651C49.9815 24.3421 50.5 23.0902 50.5 21.7849C50.5 20.4796 49.9815 19.2277 49.0585 18.3047C48.1355 17.3817 46.8836 16.8632 45.5783 16.8632C44.2729 16.8632 43.0211 17.3817 42.0981 18.3047C41.1751 19.2277 40.6565 20.4796 40.6565 21.7849C40.6565 23.0902 41.1751 24.3421 42.0981 25.2651C43.0211 26.1881 44.2729 26.7067 45.5783 26.7067ZM39.7698 25.8938C39.6494 25.4127 39.369 24.9867 38.9748 24.6859C38.5805 24.385 38.0957 24.227 37.5998 24.2379C35.4036 24.2401 31.5122 24.4785 28.8982 29.7065C25.617 36.2688 25.617 40.6437 26.7108 42.8311C27.7892 44.9901 28.9026 46.1123 29.9919 46.6897V55.9557C29.9919 56.5359 30.2224 57.0922 30.6326 57.5025C31.0428 57.9127 31.5992 58.1432 32.1794 58.1432C32.7595 58.1432 33.3159 57.9127 33.7261 57.5025C34.1363 57.0922 34.3668 56.5359 34.3668 55.9557V47.1513C34.3703 42.5452 34.9133 37.4108 35.9936 34.3899C36.276 33.6005 37.2228 33.7437 37.4262 34.5571L37.5779 35.1641C37.8339 36.1857 38.5623 37.0235 39.5423 37.4128L44.4902 39.3946C45.0289 39.6102 45.6311 39.6029 46.1644 39.3744C46.6977 39.1459 47.1184 38.7149 47.3339 38.1762C47.5494 37.6376 47.5422 37.0354 47.3137 36.5021C47.0852 35.9688 46.6542 35.5481 46.1155 35.3326L41.686 33.5608L39.7698 25.8938Z" fill="#C7D9FF" stroke="#78A5FF" stroke-width="0.8"/>
<path d="M44.5684 44.3535C44.5682 44.0599 44.6517 43.8915 44.7882 43.7527C44.9819 43.5721 45.2152 43.4749 45.4546 43.4749C45.694 43.4749 45.9274 43.5721 46.1212 43.7527C46.2577 43.8893 46.341 44.0599 46.341 44.3512V56.9369C46.341 57.3895 46.4811 57.8236 46.7304 58.1437C46.9797 58.4638 47.3179 58.6436 47.6705 58.6436C48.0231 58.6436 48.3613 58.4638 48.6106 58.1437C48.8599 57.8236 49 57.3895 49 56.9369V44.7331C49 43.2995 48.4824 42.1754 47.7645 41.4517C47.1023 40.7965 46.2906 40.6436 45.4546 40.6436C44.6186 40.6436 43.8053 40.7965 43.1432 41.4517C42.7542 41.8394 42.4404 42.3374 42.2264 42.9066C42.0124 43.4759 41.9953 43.7214 42.0008 44.3535C42.0008 44.8246 41.9933 45.338 42.2741 45.6985C42.555 46.0591 42.8397 46.2067 43.2369 46.2067C43.6342 46.2067 43.9943 46.1536 44.3371 45.7146C44.5684 45.4185 44.5687 44.9495 44.5684 44.3535Z" fill="#78A5FF"/>
<path d="M13.2274 38.2045C12.597 38.3936 12.2111 39.0383 12.3659 39.6432C12.5197 40.2486 13.1559 40.5877 13.7852 40.3992L16.0337 39.7244L15.6007 40.8533C15.4486 41.2519 15.5236 41.6862 15.799 41.9892C15.9267 42.135 16.0985 42.2416 16.2963 42.2979C16.494 42.3541 16.7103 42.3578 16.9222 42.3087L21.3957 41.1836C22.0323 41.0231 22.4476 40.3952 22.3229 39.7811C22.1981 39.167 21.581 38.7998 20.9451 38.9588L18.5543 39.562L19.0305 38.3182C19.1874 37.9099 19.1042 37.4651 18.8164 37.1623C18.6824 37.016 18.5027 36.9119 18.2976 36.8617C18.0924 36.8114 17.87 36.8171 17.6554 36.878L13.2274 38.2045Z" fill="#C7D9FF"/>
<path d="M12.2543 20.7133C12.4619 20.7403 12.6621 20.8066 12.8434 20.9084L21.5631 25.8004C21.8243 25.9471 22.0373 26.1623 22.1774 26.4213C22.3175 26.6802 22.379 26.9722 22.3547 27.2633C22.3304 27.5543 22.2214 27.8326 22.0402 28.0657C21.859 28.2987 21.6131 28.4771 21.3311 28.58L18.5677 29.5869L23.4517 32.4278C23.7995 32.6454 24.0466 32.9853 24.1408 33.3755C24.2351 33.7658 24.1691 34.1759 23.9567 34.5192C23.7444 34.8625 23.4024 35.1121 23.003 35.2153C22.6036 35.3185 22.178 35.2672 21.8162 35.0722L14.1027 30.5885C13.8455 30.439 13.6369 30.2224 13.5008 29.9636C13.3646 29.7049 13.3065 29.4143 13.333 29.1253C13.3595 28.8364 13.4696 28.5607 13.6506 28.3299C13.8317 28.0991 14.0763 27.9225 14.3565 27.8204L17.057 26.836L11.2484 23.5789C10.8823 23.3733 10.6152 23.0354 10.5058 22.6396C10.3965 22.2437 10.4538 21.8224 10.6653 21.4683C10.8768 21.1141 11.2251 20.8562 11.6336 20.7512C11.8358 20.6992 12.0468 20.6863 12.2543 20.7133Z" fill="#C7D9FF"/>
</svg>
