<svg width="20" height="20" viewBox="0 0 20 20" fill="none" xmlns="http://www.w3.org/2000/svg">
<path d="M10.6356 2.08526C10.4669 1.93187 10.238 1.8457 9.99936 1.8457C9.76073 1.8457 9.53186 1.93187 9.36309 2.08526L1.2635 9.44897C1.13767 9.5634 1.05199 9.70917 1.01728 9.86786C0.982573 10.0266 1.0004 10.191 1.06849 10.3405C1.13659 10.49 1.25191 10.6178 1.39988 10.7077C1.54784 10.7976 1.7218 10.8456 1.89976 10.8456H2.79972V16.573C2.79972 17.4754 3.60698 18.2093 4.59963 18.2093H15.3991C16.3917 18.2093 17.199 17.4754 17.199 16.573V10.8456H18.099C18.2771 10.846 18.4514 10.7982 18.5996 10.7084C18.7479 10.6185 18.8634 10.4907 18.9316 10.341C18.9997 10.1914 19.0175 10.0267 18.9825 9.86787C18.9476 9.70905 18.8615 9.56325 18.7352 9.44897L10.6356 2.08526ZM16.1401 16.7501C16.1401 16.9711 15.961 17.1501 15.7401 17.1501H4.25882C4.03791 17.1501 3.85882 16.9711 3.85882 16.7501V8.90168C3.85882 8.79193 3.90391 8.68701 3.98353 8.61148L9.72408 3.16587C9.8784 3.01948 10.1203 3.01947 10.2747 3.16587L16.0154 8.61148C16.095 8.68701 16.1401 8.79194 16.1401 8.90168V12.482V16.7501Z" fill="#292D32"/>
<path d="M10.6738 9.12695H9.32383V11.152H7.29883V12.502H9.32383V14.527H10.6738V12.502H12.6988V11.152H10.6738V9.12695Z" fill="#292D32"/>
</svg>
