<svg width="68" height="68" viewBox="0 0 68 68" fill="none" xmlns="http://www.w3.org/2000/svg">
<rect x="0.5" y="0.5" width="67" height="67" rx="33.5" fill="#F2F6FF"/>
<rect x="0.5" y="0.5" width="67" height="67" rx="33.5" stroke="#78A5FF"/>
<path d="M36.218 44.1436H50.8383C51.6112 44.1436 52.3525 44.4506 52.899 44.9972C53.4455 45.5437 53.7526 46.285 53.7526 47.0579V61L55.7918 59.4139C56.3439 58.9845 56.6669 58.3242 56.6669 57.6247V47.0579C56.6669 45.512 56.0528 44.0295 54.9597 42.9365C53.8666 41.8434 52.3841 41.2293 50.8383 41.2293H44.0137H41.7668H33.2658H24.147H16.0288C14.4829 41.2293 13.0004 41.8434 11.9073 42.9365C10.8143 44.0295 10.2002 45.512 10.2002 47.0579L10.2002 55.9855C10.2002 56.631 10.4754 57.2458 10.9567 57.6759L13.0335 59.5312L13.1145 47.0579C13.1145 46.285 13.4215 45.5437 13.9681 44.9972C14.5146 44.4506 15.2559 44.1436 16.0288 44.1436H23.6749H27.921H36.218Z" fill="#C7D9FF"/>
<path d="M44.0137 41.2293C44.7029 41.065 45.3086 40.6553 45.7176 40.0767C46.1266 39.4982 46.3108 38.7905 46.2358 38.0859C46.1608 37.3814 45.8317 36.7283 45.3101 36.2489C44.7884 35.7694 44.11 35.4964 43.4017 35.4809C40.8459 35.4226 40.0794 34.9971 39.5301 34.5031C39.1614 34.1695 38.749 33.6638 38.1778 32.7866C37.7735 32.1672 37.3578 31.4701 36.8503 30.6191L36.8256 30.5776L36.1072 29.3784L36.0446 29.2764C35.8434 28.9305 35.6266 28.594 35.3947 28.268C35.1105 27.8848 34.5845 27.2626 33.7015 26.8954C32.8141 26.5253 31.9908 26.5894 31.4823 26.6695C31.0001 26.7583 30.5234 26.8741 30.0543 27.0163C28.7895 27.3792 27.7359 28.3394 27.0453 29.0898C26.1804 30.0423 25.4454 31.105 24.8595 32.2504C23.6865 34.5206 22.6665 37.9522 24.112 41.1535L24.147 41.2293H33.2658L31.8728 39.8552L34.0774 37.0998C34.5408 37.7205 35.0479 38.3092 35.6307 38.8338C37.3429 40.3754 39.3173 41.0166 41.7668 41.2293H44.0137Z" fill="#C7D9FF"/>
<path d="M44.8953 20.4592C44.8953 21.9071 44.3201 23.2956 43.2963 24.3194C42.2725 25.3432 40.8839 25.9184 39.4361 25.9184C37.9882 25.9184 36.5996 25.3432 35.5758 24.3194C34.552 23.2956 33.9769 21.9071 33.9769 20.4592C33.9769 19.0113 34.552 17.6228 35.5758 16.599C36.5996 15.5752 37.9882 15 39.4361 15C40.8839 15 42.2725 15.5752 43.2963 16.599C44.3201 17.6228 44.8953 19.0113 44.8953 20.4592Z" fill="#C7D9FF"/>
<path d="M27.921 44.1436L34.3237 50.4618L37.3341 57.4036C37.6418 58.1127 38.2185 58.6707 38.9375 58.9546C39.6564 59.2385 40.4587 59.2252 41.1679 58.9176C41.877 58.6099 42.4349 58.0332 42.7189 57.3143C43.0028 56.5953 42.9895 55.793 42.6819 55.0838L39.447 47.6233C39.2985 47.2814 39.0858 46.9713 38.8204 46.7096L36.218 44.1436H27.921Z" fill="#C7D9FF"/>
<path d="M27.921 44.1436L34.3237 50.4618L37.3341 57.4036C37.6418 58.1127 38.2185 58.6707 38.9375 58.9546C39.6564 59.2385 40.4587 59.2252 41.1679 58.9176C41.877 58.6099 42.4349 58.0332 42.7189 57.3143C43.0028 56.5953 42.9895 55.793 42.6819 55.0838L39.447 47.6233C39.2985 47.2814 39.0858 46.9713 38.8204 46.7096L36.218 44.1436M27.921 44.1436H23.6749H16.0288C15.2559 44.1436 14.5146 44.4506 13.9681 44.9972C13.4215 45.5437 13.1145 46.285 13.1145 47.0579L13.0335 59.5312L10.9567 57.6759C10.4754 57.2458 10.2002 56.631 10.2002 55.9855L10.2002 47.0579C10.2002 45.512 10.8143 44.0295 11.9073 42.9365C13.0004 41.8434 14.4829 41.2293 16.0288 41.2293H24.147M27.921 44.1436H36.218M36.218 44.1436H50.8383C51.6112 44.1436 52.3525 44.4506 52.899 44.9972C53.4455 45.5437 53.7526 46.285 53.7526 47.0579V61L55.7918 59.4139C56.3439 58.9845 56.6669 58.3242 56.6669 57.6247V47.0579C56.6669 45.512 56.0528 44.0295 54.9597 42.9365C53.8666 41.8434 52.3841 41.2293 50.8383 41.2293H44.0137M36.8256 30.5776C36.8339 30.5915 36.8421 30.6053 36.8503 30.6191C37.3578 31.4701 37.7735 32.1672 38.1778 32.7866C38.749 33.6638 39.1614 34.1694 39.5301 34.5031C40.0794 34.9971 40.8459 35.4226 43.4017 35.4809C44.11 35.4964 44.7884 35.7694 45.3101 36.2489C45.8317 36.7283 46.1608 37.3814 46.2358 38.0859C46.3108 38.7905 46.1266 39.4982 45.7176 40.0767C45.3086 40.6553 44.7029 41.065 44.0137 41.2293M44.0137 41.2293H41.7668M36.8503 30.6191L36.8256 30.5776L36.1072 29.3784L36.0446 29.2764C35.8434 28.9305 35.6266 28.594 35.3947 28.268C35.1105 27.8848 34.5845 27.2626 33.7015 26.8954C32.8141 26.5253 31.9908 26.5894 31.4823 26.6695C31.0001 26.7583 30.5234 26.8741 30.0543 27.0163C28.7895 27.3792 27.7359 28.3394 27.0453 29.0898C26.1804 30.0423 25.4454 31.105 24.8595 32.2504C23.6865 34.5206 22.6665 37.9522 24.112 41.1535L24.147 41.2293M24.147 41.2293H33.2658M41.7668 41.2293H33.2658M41.7668 41.2293C39.3173 41.0166 37.3429 40.3754 35.6307 38.8338C35.0479 38.3092 34.5408 37.7205 34.0774 37.0998L31.8728 39.8552L33.2658 41.2293M44.8953 20.4592C44.8953 21.9071 44.3201 23.2956 43.2963 24.3194C42.2725 25.3432 40.8839 25.9184 39.4361 25.9184C37.9882 25.9184 36.5996 25.3432 35.5758 24.3194C34.552 23.2956 33.9769 21.9071 33.9769 20.4592C33.9769 19.0113 34.552 17.6228 35.5758 16.599C36.5996 15.5752 37.9882 15 39.4361 15C40.8839 15 42.2725 15.5752 43.2963 16.599C44.3201 17.6228 44.8953 19.0113 44.8953 20.4592Z" stroke="#78A5FF" stroke-width="0.8"/>
<path d="M36.218 44.1438H50.8383C51.6112 44.1438 52.3525 44.4508 52.899 44.9974C53.4455 45.5439 53.7526 46.2851 53.7526 47.0581V60.5L55.7918 58.9139C56.3439 58.4845 56.6669 57.8242 56.6669 57.1247V47.0581C56.6669 45.5122 56.0528 44.0297 54.9597 42.9366C53.8666 41.8436 52.3841 41.2295 50.8383 41.2295H44.0137H41.7668H33.2658H24.147H16.0288C14.4829 41.2295 13.0004 41.8436 11.9073 42.9366C10.8143 44.0297 10.2002 45.5122 10.2002 47.0581L10.2002 55.9855C10.2002 56.631 10.4754 57.2458 10.9567 57.6759L13.0335 59.5312L13.1145 47.0581C13.1145 46.2851 13.4215 45.5439 13.9681 44.9974C14.5146 44.4508 15.2559 44.1438 16.0288 44.1438H23.6749H27.921H36.218Z" fill="#78A5FF"/>
<path d="M24.336 46.4667C24.5377 45.6052 25.5791 45.2618 26.2536 45.8345L29.4898 48.5821L28.2818 52.6577C28.208 52.9074 28.1021 53.1434 27.9641 53.3659L25.3908 57.5129C24.9833 58.1697 24.3316 58.6377 23.579 58.814C22.8264 58.9902 22.0346 58.8603 21.3778 58.4528C20.7211 58.0453 20.2531 57.3935 20.0768 56.6409C19.9005 55.8884 20.0305 55.0966 20.438 54.4398L22.8058 50.6265L24.336 46.4667Z" fill="#C7D9FF" stroke="#78A5FF" stroke-width="0.8"/>
</svg>
