<svg width="68" height="68" viewBox="0 0 68 68" fill="none" xmlns="http://www.w3.org/2000/svg">
<rect x="0.5" y="0.5" width="67" height="67" rx="33.5" fill="white"/>
<rect x="0.5" y="0.5" width="67" height="67" rx="33.5" stroke="#DFE3E7"/>
<path d="M36.2183 44.1436H50.8386C51.6115 44.1436 52.3528 44.4506 52.8993 44.9972C53.4459 45.5437 53.7529 46.285 53.7529 47.0579V60.9L55.7921 59.3139C56.3442 58.8845 56.6672 58.2242 56.6672 57.5247V47.0579C56.6672 45.512 56.0531 44.0295 54.96 42.9365C53.867 41.8434 52.3844 41.2293 50.8386 41.2293H44.014H41.7671H33.2661H24.1473H16.0291C14.4833 41.2293 13.0007 41.8434 11.9077 42.9365C10.8146 44.0295 10.2005 45.512 10.2005 47.0579L10.2002 56.4543C10.2002 57.0998 10.4754 57.7146 10.9568 58.1447L13.0335 60L13.1148 47.0579C13.1148 46.285 13.4218 45.5437 13.9684 44.9972C14.5149 44.4506 15.2562 44.1436 16.0291 44.1436H23.6752H27.9213H36.2183Z" fill="#F0F2F5"/>
<path d="M44.014 41.2293C44.7032 41.065 45.3089 40.6553 45.7179 40.0767C46.1269 39.4982 46.3111 38.7905 46.2361 38.0859C46.1611 37.3814 45.832 36.7283 45.3104 36.2489C44.7888 35.7694 44.1103 35.4964 43.402 35.4809C40.8462 35.4226 40.0797 34.9971 39.5304 34.5031C39.1617 34.1694 38.7494 33.6638 38.1782 32.7866C37.7738 32.1672 37.3581 31.4701 36.8507 30.6191L36.8259 30.5776L36.1076 29.3784L36.0449 29.2764C35.8438 28.9305 35.6269 28.594 35.395 28.268C35.1109 27.8848 34.5848 27.2626 33.7018 26.8954C32.8144 26.5253 31.9911 26.5894 31.4826 26.6695C31.0005 26.7583 30.5237 26.8741 30.0546 27.0163C28.7898 27.3792 27.7363 28.3394 27.0456 29.0898C26.1807 30.0423 25.4457 31.105 24.8599 32.2504C23.6869 34.5206 22.6669 37.9522 24.1123 41.1535L24.1473 41.2293H33.2661L31.8731 39.8552L34.0777 37.0998C34.5411 37.7205 35.0482 38.3092 35.6311 38.8338C37.3432 40.3754 39.3176 41.0166 41.7671 41.2293H44.014Z" fill="#F0F2F5"/>
<path d="M44.8956 20.4592C44.8956 21.9071 44.3204 23.2956 43.2966 24.3194C42.2728 25.3432 40.8843 25.9184 39.4364 25.9184C37.9885 25.9184 36.6 25.3432 35.5762 24.3194C34.5524 23.2956 33.9772 21.9071 33.9772 20.4592C33.9772 19.0113 34.5524 17.6228 35.5762 16.599C36.6 15.5752 37.9885 15 39.4364 15C40.8843 15 42.2728 15.5752 43.2966 16.599C44.3204 17.6228 44.8956 19.0113 44.8956 20.4592Z" fill="#F0F2F5"/>
<path d="M27.9213 44.1436L34.324 50.4618L37.3345 57.4036C37.6421 58.1127 38.2188 58.6707 38.9378 58.9546C39.6567 59.2385 40.4591 59.2252 41.1682 58.9176C41.8774 58.6099 42.4353 58.0332 42.7192 57.3142C43.0031 56.5953 42.9898 55.793 42.6822 55.0838L39.4473 47.6232C39.2988 47.2814 39.0861 46.9713 38.8208 46.7096L36.2183 44.1436H27.9213Z" fill="#F0F2F5"/>
<path d="M27.9213 44.1436L34.324 50.4618L37.3345 57.4036C37.6421 58.1127 38.2188 58.6706 38.9378 58.9546C39.6567 59.2385 40.4591 59.2252 41.1682 58.9176C41.8774 58.6099 42.4353 58.0332 42.7192 57.3142C43.0031 56.5953 42.9898 55.793 42.6822 55.0838L39.4473 47.6232C39.2988 47.2814 39.0861 46.9713 38.8208 46.7096L36.2183 44.1436M27.9213 44.1436H23.6752H16.0291C15.2562 44.1436 14.5149 44.4506 13.9684 44.9972C13.4218 45.5437 13.1148 46.285 13.1148 47.0579L13.0335 60L10.9568 58.1447C10.4754 57.7146 10.2002 57.0998 10.2002 56.4543L10.2005 47.0579C10.2005 45.512 10.8146 44.0295 11.9077 42.9365C13.0007 41.8434 14.4833 41.2293 16.0291 41.2293H24.1473M27.9213 44.1436H36.2183M36.2183 44.1436H50.8386C51.6115 44.1436 52.3528 44.4506 52.8993 44.9972C53.4459 45.5437 53.7529 46.285 53.7529 47.0579V60.9L55.7921 59.3139C56.3442 58.8845 56.6672 58.2242 56.6672 57.5247V47.0579C56.6672 45.512 56.0531 44.0295 54.96 42.9365C53.867 41.8434 52.3844 41.2293 50.8386 41.2293H44.014M36.8259 30.5776C36.8342 30.5915 36.8424 30.6053 36.8507 30.6191C37.3581 31.4701 37.7738 32.1672 38.1782 32.7866C38.7494 33.6638 39.1617 34.1694 39.5304 34.5031C40.0797 34.9971 40.8462 35.4226 43.402 35.4809C44.1103 35.4964 44.7888 35.7694 45.3104 36.2489C45.832 36.7283 46.1611 37.3814 46.2361 38.0859C46.3111 38.7905 46.1269 39.4982 45.7179 40.0767C45.3089 40.6553 44.7032 41.065 44.014 41.2293M44.014 41.2293H41.7671M36.8507 30.6191L36.8259 30.5776L36.1076 29.3784L36.0449 29.2764C35.8438 28.9305 35.6269 28.594 35.395 28.268C35.1109 27.8848 34.5848 27.2626 33.7018 26.8954C32.8144 26.5253 31.9911 26.5894 31.4826 26.6695C31.0005 26.7583 30.5237 26.8741 30.0546 27.0163C28.7898 27.3792 27.7363 28.3394 27.0456 29.0898C26.1807 30.0423 25.4457 31.105 24.8599 32.2504C23.6869 34.5206 22.6669 37.9522 24.1123 41.1535L24.1473 41.2293M24.1473 41.2293H33.2661M41.7671 41.2293H33.2661M41.7671 41.2293C39.3176 41.0166 37.3432 40.3754 35.6311 38.8338C35.0482 38.3092 34.5411 37.7205 34.0777 37.0998L31.8731 39.8552L33.2661 41.2293M44.8956 20.4592C44.8956 21.9071 44.3204 23.2956 43.2966 24.3194C42.2728 25.3432 40.8843 25.9184 39.4364 25.9184C37.9885 25.9184 36.6 25.3432 35.5762 24.3194C34.5524 23.2956 33.9772 21.9071 33.9772 20.4592C33.9772 19.0113 34.5524 17.6228 35.5762 16.599C36.6 15.5752 37.9885 15 39.4364 15C40.8843 15 42.2728 15.5752 43.2966 16.599C44.3204 17.6228 44.8956 19.0113 44.8956 20.4592Z" stroke="#BDC4CF" stroke-width="0.8"/>
<path d="M24.336 46.4667C24.5377 45.6052 25.5791 45.2618 26.2536 45.8345L29.4898 48.5821L28.2818 52.6577C28.208 52.9074 28.1021 53.1434 27.9641 53.3659L25.3908 57.5129C24.9833 58.1697 24.3316 58.6377 23.579 58.814C22.8264 58.9902 22.0346 58.8603 21.3778 58.4528C20.7211 58.0453 20.2531 57.3935 20.0768 56.6409C19.9005 55.8884 20.0305 55.0966 20.438 54.4398L22.8058 50.6265L24.336 46.4667Z" fill="#E8EBEE" stroke="#BDC4CF" stroke-width="0.8"/>
<path d="M36.218 43.7141H50.8383C51.6112 43.7141 52.3525 44.0211 52.899 44.5677C53.4455 45.1142 53.7526 45.8555 53.7526 46.6284V61.1998L55.7918 59.6137C56.3439 59.1843 56.6669 58.524 56.6669 57.8245V46.6284C56.6669 45.0825 56.0528 43.6 54.9597 42.507C53.8666 41.4139 52.3841 40.7998 50.8383 40.7998H44.0137H41.7668H33.2658H24.147H16.0288C14.4829 40.7998 13.0004 41.4139 11.9073 42.507C10.8143 43.6 10.2002 45.0825 10.2002 46.6284L10.2002 56.7853C10.2002 57.4308 10.4754 58.0457 10.9567 58.4757L13.0335 60.331L13.1145 46.6284C13.1145 45.8555 13.4215 45.1142 13.9681 44.5677C14.5146 44.0211 15.2559 43.7141 16.0288 43.7141H23.6749H27.921H36.218Z" fill="#BDC4CF"/>
</svg>
