<svg width="20" height="20" viewBox="0 0 20 20" fill="none" xmlns="http://www.w3.org/2000/svg">
<path fill-rule="evenodd" clip-rule="evenodd" d="M13.5556 3.33333C13.4377 3.33333 13.3246 3.28651 13.2413 3.20316C13.1579 3.11981 13.1111 3.00676 13.1111 2.88889V2H12.2222V2.88889C12.2222 3.46933 12.5933 3.96356 13.1111 4.14667V4.66667H12.6667C12.5488 4.66667 12.4357 4.71349 12.3524 4.79684C12.269 4.88019 12.2222 4.99324 12.2222 5.11111V7.77778C12.2222 7.89565 12.269 8.0087 12.3524 8.09205C12.4357 8.1754 12.5488 8.22222 12.6667 8.22222H14.4444C14.5623 8.22222 14.6754 8.1754 14.7587 8.09205C14.8421 8.0087 14.8889 7.89565 14.8889 7.77778V5.11111C14.8889 4.99324 14.8421 4.88019 14.7587 4.79684C14.6754 4.71349 14.5623 4.66667 14.4444 4.66667H14V4.22222H16.2222V9.58489H8.27111C8.2531 9.58511 8.23522 9.58168 8.21857 9.57481C8.20192 9.56793 8.18683 9.55775 8.17422 9.54489L8.01155 9.38044L8.17555 9.21733C8.33127 9.06176 8.4548 8.87703 8.5391 8.6737C8.6234 8.47037 8.66681 8.25243 8.66685 8.03231C8.66689 7.8122 8.62356 7.59424 8.53934 7.39088C8.45512 7.18752 8.33165 7.00274 8.176 6.84711L7.376 6.04711C7.22049 5.89134 7.0358 5.76774 6.83251 5.68336C6.62921 5.59899 6.41128 5.55549 6.19116 5.55537C5.97105 5.55525 5.75307 5.59849 5.54968 5.68264C5.34629 5.76678 5.16147 5.89018 5.00578 6.04578L4.69289 6.35867C4.39035 6.27237 4.07019 6.26896 3.76589 6.34879C3.46159 6.42862 3.18433 6.58876 2.96311 6.81244C2.6308 7.14814 2.44438 7.60142 2.44438 8.07378C2.44438 8.54614 2.6308 8.99941 2.96311 9.33511L3.33333 9.708V14.4444H2V15.3333H3.35556C3.13483 15.5496 2.98352 15.8267 2.92092 16.1293C2.85832 16.4319 2.88726 16.7463 3.00406 17.0324C3.12085 17.3185 3.32021 17.5633 3.57671 17.7356C3.8332 17.908 4.13521 18 4.44422 18C4.75323 18 5.05524 17.908 5.31174 17.7356C5.56823 17.5633 5.76759 17.3185 5.88438 17.0324C6.00118 16.7463 6.03012 16.4319 5.96752 16.1293C5.90492 15.8267 5.75361 15.5496 5.53289 15.3333H14.4671C14.2464 15.5496 14.0951 15.8267 14.0325 16.1293C13.9699 16.4319 13.9988 16.7463 14.1156 17.0324C14.2324 17.3185 14.4318 17.5633 14.6883 17.7356C14.9448 17.908 15.2468 18 15.5558 18C15.8648 18 16.1668 17.908 16.4233 17.7356C16.6798 17.5633 16.8791 17.3185 16.9959 17.0324C17.1127 16.7463 17.1417 16.4319 17.0791 16.1293C17.0165 15.8267 16.8652 15.5496 16.6444 15.3333H18V14.4444H16.2222V13.1111H16.2516C17.2178 13.1111 18 12.3218 18 11.348C18.0006 11.0363 17.9187 10.7301 17.7626 10.4604C17.6065 10.1906 17.3817 9.96709 17.1111 9.81244V4.22222C17.1111 3.98647 17.0175 3.76038 16.8508 3.59368C16.6841 3.42698 16.458 3.33333 16.2222 3.33333H13.5556ZM5.47822 6.83022L7.38489 8.75022L7.54711 8.58844C7.62022 8.51539 7.67821 8.42864 7.71777 8.33317C7.75734 8.23769 7.77771 8.13535 7.77771 8.032C7.77771 7.92865 7.75734 7.82631 7.71777 7.73083C7.67821 7.63535 7.62022 7.54861 7.54711 7.47555L6.74711 6.67555C6.67411 6.60239 6.58741 6.54433 6.49197 6.50469C6.39652 6.46504 6.2942 6.4446 6.19085 6.44451C6.0875 6.44443 5.98514 6.46472 5.88964 6.50421C5.79413 6.5437 5.70734 6.60162 5.63422 6.67467L5.47822 6.83022ZM6.56711 12.9636C6.66044 13.0578 6.788 13.1111 6.92089 13.1111H15.3333V14.4444H4.22222V10.6027L6.56711 12.9636ZM7.544 10.1711C7.73555 10.364 7.99733 10.4738 8.27111 10.4738H16.2516C16.7191 10.4738 17.1111 10.8582 17.1111 11.348C17.1111 11.8378 16.7196 12.2222 16.2516 12.2222H7.08355L3.59378 8.70889C3.42688 8.53972 3.33331 8.31164 3.33331 8.074C3.33331 7.83636 3.42688 7.60828 3.59378 7.43911C3.67454 7.35717 3.77078 7.2921 3.87691 7.24768C3.98304 7.20327 4.09695 7.18039 4.212 7.18039C4.32705 7.18039 4.44095 7.20327 4.54709 7.24768C4.65322 7.2921 4.74946 7.35717 4.83022 7.43911L7.544 10.1711ZM5.11111 16.4444C5.11111 16.6213 5.04087 16.7908 4.91585 16.9158C4.79082 17.0409 4.62125 17.1111 4.44444 17.1111C4.26763 17.1111 4.09806 17.0409 3.97304 16.9158C3.84802 16.7908 3.77778 16.6213 3.77778 16.4444C3.77778 16.2676 3.84802 16.0981 3.97304 15.973C4.09806 15.848 4.26763 15.7778 4.44444 15.7778C4.62125 15.7778 4.79082 15.848 4.91585 15.973C5.04087 16.0981 5.11111 16.2676 5.11111 16.4444ZM15.5556 17.1111C15.7324 17.1111 15.9019 17.0409 16.027 16.9158C16.152 16.7908 16.2222 16.6213 16.2222 16.4444C16.2222 16.2676 16.152 16.0981 16.027 15.973C15.9019 15.848 15.7324 15.7778 15.5556 15.7778C15.3787 15.7778 15.2092 15.848 15.0841 15.973C14.9591 16.0981 14.8889 16.2676 14.8889 16.4444C14.8889 16.6213 14.9591 16.7908 15.0841 16.9158C15.2092 17.0409 15.3787 17.1111 15.5556 17.1111ZM13.1111 7.33333V5.55555H14V7.33333H13.1111Z" fill="#292D32"/>
</svg>
