<svg width="72" height="68" viewBox="0 0 72 68" fill="none" xmlns="http://www.w3.org/2000/svg">
<rect x="4.5" y="0.5" width="67" height="67" rx="33.5" fill="white"/>
<rect x="4.5" y="0.5" width="67" height="67" rx="33.5" stroke="#DFE3E7"/>
<path d="M5.67582 26.6154H22.4817V24.4753H23.8691V16.5275H32.4981V19.8908L37.8891 16.7562V15H44.9784V25.3942H37.8891V22.184L32.496 25.241V33.1888L23.867 33.6483V30.5913H22.4796V28.5H5.35742L5.5 27.5471L5.67582 26.6154ZM30.6063 21.747C29.4433 21.9574 29.2148 23.8422 30.5837 24.0138C32.5063 24.2527 32.1543 21.4652 30.6063 21.747Z" fill="#BDC4CF"/>
<path d="M59.2207 34.1104C60.9904 33.8732 62.4158 34.3595 63.4385 35.2588C64.4538 36.1518 65.0495 37.431 65.2129 38.75C65.3762 40.0689 65.1109 41.4534 64.3711 42.5635C63.6258 43.6816 62.411 44.5015 60.7266 44.6943C58.9392 44.8985 57.5032 44.4066 56.4746 43.5137C55.4522 42.626 54.855 41.3622 54.6943 40.0566C54.5339 38.7514 54.8072 37.3819 55.5557 36.2764C56.309 35.1638 57.5315 34.3372 59.2207 34.1104Z" fill="#F0F2F5" stroke="#BDC4CF" stroke-width="0.7"/>
<path d="M43.5925 9V12.4572H44.9799V14.0439H37.8906V12.4572H39.278V9H43.5925Z" fill="#BDC4CF"/>
<path d="M45.0166 58V59.4279H43.853V61.3637H39.726V59.4279H38.3004C38.202 59.0079 38.0996 58.3008 38.456 58H45.0147H45.0166Z" fill="#BDC4CF"/>
<path d="M30.7998 23.4004C31.0759 23.4004 31.2998 23.1765 31.2998 22.9004C31.2998 22.6242 31.0759 22.4004 30.7998 22.4004C30.5237 22.4004 30.2998 22.6242 30.2998 22.9004C30.2998 23.1765 30.5237 23.4004 30.7998 23.4004Z" fill="#BDC4CF"/>
<path d="M60.4547 56.4832V49.9043H58.5389V54.7291H55.9595L55.739 53.9985H52.055V54.7291H44.9804V51.8049H38.2012V57.5067H44.9804V56.4832H52.055V57.2137H55.739L55.9595 56.4832H60.4547ZM53.963 56.2722C53.5829 56.2722 53.2738 55.9655 53.2738 55.5885C53.2738 55.2115 53.5829 54.9049 53.963 54.9049C54.343 54.9049 54.6521 55.2115 54.6521 55.5885C54.6521 55.9655 54.343 56.2722 53.963 56.2722Z" fill="#BDC4CF"/>
<path d="M67.2695 49.9479L60.7208 49.9475H58.805H8.22612L7 46.0428L68.8855 46.042C68.917 46.042 69 46.4006 69 46.4006L68 49.358L67.2695 49.9479Z" fill="url(#paint0_linear_1676_7133)"/>
<path d="M32.6348 37.6562C33.0489 37.6658 33.4636 37.6885 33.7988 37.7354C33.9655 37.7587 34.1241 37.7896 34.2578 37.832C34.3748 37.8692 34.5385 37.9346 34.6465 38.0674L34.7314 38.1895C34.7578 38.2335 34.7816 38.2791 34.8027 38.3203C34.8487 38.4099 34.8944 38.5097 34.9346 38.6006C34.9492 38.6336 34.9624 38.6666 34.9756 38.6973C39.461 38.2133 43.8998 37.6151 48.4619 38.4717C50.6365 38.8798 52.1398 39.6037 52.9414 40.8662C53.7409 42.1255 53.7785 43.8223 53.2803 46.0117L53.2188 46.2832H11.541L11.4424 46.1982C10.274 45.1867 9.95874 43.8281 10.3535 42.6709C10.7223 41.5899 11.6949 40.7303 13.0557 40.5059L13.333 40.4697C13.8362 40.3917 15.4939 40.236 17.0146 40.1016C17.7912 40.0329 18.5391 39.9697 19.0928 39.9229C19.3587 39.9004 19.5802 39.8804 19.7383 39.8672C19.7691 39.7649 19.8181 39.6462 19.8945 39.5215C20.1114 39.1677 20.526 38.8087 21.2803 38.6172C23.6623 38.0125 28.0982 37.7731 30.5898 37.6836V37.6826H30.5918C30.9299 37.6699 31.8041 37.6371 32.6348 37.6562Z" fill="#F0F2F5" stroke="#BDC4CF" stroke-width="0.7"/>
<path d="M20.1834 37.3072C19.524 38.3589 19.4807 39.2507 19.1909 41.5605C19.0578 42.6215 19.0113 44.0666 19 45.319L19.022 48H36.9312C36.9312 48 37.063 46.3832 36.9618 44.525C36.8606 42.6668 35.803 38.4537 35.2236 37.2316C34.6441 36.0095 32.0603 36.1134 28.1375 36.0095C24.2147 35.9055 20.5759 36.6803 20.1834 37.3072Z" fill="#F7F8FA" stroke="#BDC4CF" stroke-width="0.8"/>
<defs>
<linearGradient id="paint0_linear_1676_7133" x1="5.2666" y1="47.9739" x2="69.9977" y2="47.9739" gradientUnits="userSpaceOnUse">
<stop stop-color="#DFE3E7"/>
<stop offset="0.5" stop-color="#BDC4CF"/>
<stop offset="1" stop-color="#DFE3E7"/>
</linearGradient>
</defs>
</svg>
