<svg width="80" height="80" viewBox="0 0 80 80" fill="none" xmlns="http://www.w3.org/2000/svg">
<path d="M79.5 40C79.5 61.5391 62.0391 79 40.5 79C18.9609 79 1.5 61.5391 1.5 40C1.5 18.4609 18.9609 1 40.5 1C62.0391 1 79.5 18.4609 79.5 40Z" fill="#C7D9FF"/>
<path fill-rule="evenodd" clip-rule="evenodd" d="M70 69.5385C69.999 70.4562 69.634 71.3361 68.985 71.985C68.3361 72.634 67.4562 72.999 66.5385 73H13.4615C12.5438 72.999 11.6639 72.634 11.015 71.985C10.366 71.3361 10.001 70.4562 10 69.5385V67.3692L19.0692 29.9599C19.1762 29.5153 19.2304 29.0596 19.2308 28.6023V15.3077C19.2315 14.6959 19.4748 14.1093 19.9075 13.6767C20.3401 13.2441 20.9266 13.0007 21.5385 13H58.4615C59.0734 13.0007 59.6599 13.2441 60.0925 13.6767C60.5252 14.1093 60.7685 14.6959 60.7692 15.3077V28.6023C60.7694 29.0602 60.8239 29.5165 60.9315 29.9615L70 67.3692V69.5385Z" fill="white"/>
<rect x="19" y="54" width="7" height="11" fill="#9EE1FF"/>
<rect x="34" y="53" width="10" height="11" fill="#9EE1FF"/>
<rect x="35" y="36" width="8" height="11" fill="#9EE1FF"/>
<rect x="50" y="43" width="9" height="11" fill="#9EE1FF"/>
<path fill-rule="evenodd" clip-rule="evenodd" d="M71.9677 66.7305L62.9543 29.5491C62.8899 29.2841 62.8572 29.0122 62.8571 28.7394V15.5714C62.8559 14.3594 62.3738 13.1974 61.5168 12.3403C60.6598 11.4833 59.4977 11.0013 58.2857 11H21.7143C20.5023 11.0013 19.3402 11.4833 18.4832 12.3403C17.6262 13.1974 17.1441 14.3594 17.1429 15.5714V28.7394C17.1427 29.0114 17.1105 29.2824 17.0469 29.5469L8.03234 66.7305C8.01101 66.8188 8.00015 66.9092 8 67V69.2857C8.00178 70.8007 8.6044 72.2531 9.67565 73.3244C10.7469 74.3956 12.1993 74.9982 13.7143 75H66.2857C67.8007 74.9982 69.2531 74.3956 70.3244 73.3244C71.3956 72.2531 71.9982 70.8007 72 69.2857V67C71.9998 66.9092 71.989 66.8188 71.9677 66.7305ZM69.7143 69.2857C69.7133 70.1947 69.3517 71.0662 68.709 71.709C68.0662 72.3517 67.1947 72.7133 66.2857 72.7143H13.7143C12.8053 72.7133 11.9338 72.3517 11.291 71.709C10.6483 71.0662 10.2867 70.1947 10.2857 69.2857V67.1371L19.2686 30.0841C19.3745 29.6437 19.4282 29.1924 19.4286 28.7394V15.5714C19.4293 14.9654 19.6703 14.3845 20.0988 13.956C20.5273 13.5274 21.1083 13.2864 21.7143 13.2857H58.2857C58.8917 13.2864 59.4727 13.5274 59.9012 13.956C60.3297 14.3845 60.5707 14.9654 60.5714 15.5714V28.7394C60.5716 29.193 60.6256 29.6449 60.7321 30.0857L69.7143 67.1371V69.2857Z" fill="#0E5BF9"/>
<path fill-rule="evenodd" clip-rule="evenodd" d="M45.4271 50.5161H32.9582C32.7127 50.5163 32.4752 50.6023 32.2874 50.7591C32.0997 50.9158 31.9738 51.1332 31.9319 51.3729L29.5985 64.7923C29.5728 64.9405 29.5801 65.0924 29.6198 65.2376C29.6595 65.3827 29.7308 65.5175 29.8285 65.6325C29.9262 65.7475 30.0482 65.84 30.1857 65.9035C30.3233 65.9669 30.4732 65.9999 30.6249 66H47.2916C47.4404 66.0001 47.5875 65.9685 47.7229 65.9075C47.8583 65.8465 47.979 65.7574 48.0767 65.6462C48.1744 65.5351 48.247 65.4044 48.2895 65.2631C48.3319 65.1219 48.3433 64.9732 48.3229 64.8271L46.4583 51.4078C46.4243 51.1607 46.3011 50.9342 46.1115 50.7702C45.9219 50.6063 45.6787 50.516 45.4271 50.5161ZM40.4313 58.2581L41.7781 56.9234C41.9678 56.7287 42.0728 56.4679 42.0704 56.1973C42.0681 55.9266 41.9585 55.6677 41.7654 55.4763C41.5723 55.2849 41.311 55.1764 41.0379 55.174C40.7647 55.1717 40.5016 55.2757 40.3052 55.4637L38.9583 56.7983L37.6114 55.4637C37.4149 55.2757 37.1518 55.1717 36.8787 55.174C36.6056 55.1764 36.3443 55.2849 36.1512 55.4763C35.958 55.6677 35.8485 55.9266 35.8461 56.1973C35.8437 56.4679 35.9487 56.7287 36.1385 56.9234L37.4852 58.2581L36.1385 59.5928C35.9487 59.7875 35.8437 60.0482 35.8461 60.3189C35.8485 60.5895 35.958 60.8484 36.1512 61.0398C36.3443 61.2312 36.6056 61.3398 36.8787 61.3421C37.1518 61.3445 37.4149 61.2404 37.6114 61.0524L38.9583 59.7178L40.3052 61.0524C40.4012 61.151 40.5162 61.2296 40.6433 61.2837C40.7704 61.3378 40.9071 61.3663 41.0454 61.3675C41.1837 61.3687 41.3208 61.3426 41.4489 61.2907C41.5769 61.2388 41.6932 61.1621 41.791 61.0652C41.8888 60.9683 41.9661 60.853 42.0185 60.7261C42.0709 60.5993 42.0973 60.4634 42.096 60.3263C42.0948 60.1892 42.0661 60.0538 42.0115 59.9278C41.9569 59.8019 41.8776 59.688 41.7781 59.5928L40.4313 58.2581Z" fill="#0E5BF9"/>
<path fill-rule="evenodd" clip-rule="evenodd" d="M56.6667 34H47.2916C47.1428 33.9999 46.9957 34.0315 46.8603 34.0926C46.7248 34.1536 46.6041 34.2428 46.5064 34.354C46.4087 34.4652 46.3361 34.5959 46.2937 34.7372C46.2512 34.8786 46.2399 35.0273 46.2604 35.1734L50.4271 65.1089C50.4613 65.3558 50.5846 65.5821 50.7742 65.7459C50.9638 65.9097 51.2068 66 51.4583 66H63.9584C64.116 66.0001 64.2716 65.9648 64.4135 65.8966C64.5553 65.8285 64.6797 65.7292 64.7772 65.6065C64.8747 65.4837 64.9427 65.3406 64.9762 65.1879C65.0097 65.0353 65.0078 64.8771 64.9706 64.7253L57.6789 34.7898C57.624 34.5647 57.4943 34.3645 57.3108 34.2212C57.1272 34.078 56.9003 34.0001 56.6667 34ZM56.3045 46.3871H52.1378C51.8615 46.3871 51.5966 46.4959 51.4012 46.6894C51.2059 46.883 51.0961 47.1456 51.0961 47.4194C51.0961 47.6931 51.2059 47.9557 51.4012 48.1493C51.5966 48.3429 51.8615 48.4516 52.1378 48.4516H56.3045C56.5808 48.4516 56.8457 48.3429 57.0411 48.1493C57.2364 47.9557 57.3462 47.6931 57.3462 47.4194C57.3462 47.1456 57.2364 46.883 57.0411 46.6894C56.8457 46.4959 56.5808 46.3871 56.3045 46.3871ZM58.0098 50.8185C57.8145 50.6249 57.5495 50.5161 57.2732 50.5161H53.1066C52.8303 50.5161 52.5653 50.6249 52.37 50.8185C52.1746 51.0121 52.0649 51.2746 52.0649 51.5484C52.0649 51.8222 52.1746 52.0847 52.37 52.2783C52.5653 52.4719 52.8303 52.5806 53.1066 52.5806H57.2732C57.5495 52.5806 57.8145 52.4719 58.0098 52.2783C58.2052 52.0847 58.3149 51.8222 58.3149 51.5484C58.3149 51.2746 58.2052 51.0121 58.0098 50.8185Z" fill="#0E5BF9"/>
<path fill-rule="evenodd" clip-rule="evenodd" d="M43.125 34H35.8333C35.5877 34.0002 35.3502 34.0862 35.1624 34.2429C34.9746 34.3997 34.8487 34.617 34.8068 34.8568L32.6505 47.2439C32.6247 47.3921 32.6319 47.5441 32.6716 47.6893C32.7113 47.8345 32.7825 47.9693 32.8803 48.0843C32.9781 48.1994 33.1 48.2918 33.2377 48.3553C33.3753 48.4187 33.5252 48.4516 33.677 48.4516H44.8541C45.003 48.4515 45.15 48.4199 45.2855 48.3587C45.4209 48.2976 45.5415 48.2084 45.6392 48.0971C45.7369 47.9859 45.8095 47.8552 45.8519 47.7139C45.8944 47.5725 45.9058 47.4238 45.8854 47.2777L44.1562 34.8906C44.1217 34.6438 43.9983 34.4178 43.8088 34.2541C43.6193 34.0904 43.3764 34.0001 43.125 34ZM41.7782 41.9557C41.9735 41.7621 42.0833 41.4996 42.0833 41.2258C42.0833 40.952 41.9735 40.6895 41.7782 40.4959C41.5828 40.3023 41.3179 40.1935 41.0416 40.1935H40.5208V39.6774C40.5208 39.4036 40.411 39.1411 40.2157 38.9475C40.0203 38.7539 39.7554 38.6452 39.4791 38.6452C39.2028 38.6452 38.9379 38.7539 38.7425 38.9475C38.5472 39.1411 38.4374 39.4036 38.4374 39.6774V40.1935H37.9166C37.6403 40.1935 37.3754 40.3023 37.18 40.4959C36.9847 40.6895 36.8749 40.952 36.8749 41.2258C36.8749 41.4996 36.9847 41.7621 37.18 41.9557C37.3754 42.1493 37.6403 42.2581 37.9166 42.2581H38.4374V42.7742C38.4374 43.048 38.5472 43.3105 38.7425 43.5041C38.9379 43.6977 39.2028 43.8065 39.4791 43.8065C39.7554 43.8065 40.0203 43.6977 40.2157 43.5041C40.411 43.3105 40.5208 43.048 40.5208 42.7742V42.2581H41.0416C41.3179 42.2581 41.5828 42.1493 41.7782 41.9557Z" fill="#0E5BF9"/>
<path fill-rule="evenodd" clip-rule="evenodd" d="M29.5883 50.8836C29.4906 50.7685 29.3687 50.6759 29.231 50.6124C29.0934 50.5489 28.9434 50.5161 28.7916 50.5161H19.3124C19.0787 50.5162 18.8519 50.5942 18.6683 50.7374C18.4848 50.8806 18.3552 51.0809 18.3003 51.3059L15.0294 64.7253C14.9922 64.8771 14.9903 65.0353 15.0238 65.1879C15.0573 65.3405 15.1253 65.4837 15.2228 65.6064C15.3203 65.7292 15.4446 65.8284 15.5864 65.8966C15.7283 65.9648 15.8839 66.0001 16.0415 66H26.4582C26.7037 65.9998 26.9413 65.9138 27.1291 65.7571C27.3169 65.6003 27.4428 65.383 27.4847 65.1432L29.818 51.7239C29.8439 51.5757 29.8367 51.4237 29.7971 51.2785C29.7574 51.1334 29.6861 50.9986 29.5883 50.8836ZM24.7269 57.2258H20.5602C20.2839 57.2258 20.019 57.3346 19.8236 57.5281C19.6283 57.7217 19.5185 57.9843 19.5185 58.2581C19.5185 58.5318 19.6283 58.7944 19.8236 58.988C20.019 59.1816 20.2839 59.2903 20.5602 59.2903H24.7269C25.0031 59.2903 25.2681 59.1816 25.4634 58.988C25.6588 58.7944 25.7685 58.5318 25.7685 58.2581C25.7685 57.9843 25.6588 57.7217 25.4634 57.5281C25.2681 57.3346 25.0031 57.2258 24.7269 57.2258ZM22.1033 55.3884C22.1033 55.6625 22.2118 55.9256 22.4055 56.1213L22.4151 56.1288C22.4646 56.1676 22.514 56.2064 22.572 56.2452C22.6251 56.2861 22.685 56.3175 22.749 56.3381C22.8082 56.3681 22.8716 56.389 22.9372 56.4C23.0058 56.4116 23.0751 56.4185 23.1447 56.4206C23.3517 56.422 23.5544 56.3623 23.727 56.249C23.8995 56.1358 24.0341 55.9741 24.1136 55.7847C24.1931 55.5953 24.2138 55.3867 24.1731 55.1856C24.1325 54.9845 24.0323 54.7999 23.8853 54.6555C23.7624 54.5357 23.6117 54.4476 23.4464 54.399C23.2811 54.3504 23.1063 54.3428 22.9374 54.3768C22.872 54.3882 22.8086 54.4091 22.7493 54.4387C22.6852 54.4593 22.6253 54.4907 22.5722 54.5316C22.5161 54.569 22.4683 54.6064 22.4204 54.6438L22.4055 54.6555C22.2118 54.8511 22.1033 55.1143 22.1033 55.3884ZM23.0931 61.0865C23.0931 60.8124 22.9846 60.5492 22.7909 60.3535C22.6938 60.2573 22.5786 60.181 22.4517 60.1289C22.3248 60.0768 22.1888 60.05 22.0514 60.05C21.9141 60.05 21.7781 60.0768 21.6512 60.1289C21.5243 60.181 21.409 60.2573 21.3119 60.3535C21.2147 60.4498 21.1377 60.5641 21.0851 60.6898C21.0326 60.8156 21.0055 60.9503 21.0055 61.0865C21.0055 61.2226 21.0326 61.3573 21.0851 61.4831C21.1377 61.6088 21.2147 61.7231 21.3119 61.8194C21.3613 61.8638 21.4135 61.9052 21.4681 61.9432C21.5261 61.9824 21.5892 62.0136 21.6556 62.0361C21.7146 62.066 21.7778 62.0869 21.8431 62.0981C21.9119 62.1101 21.9816 62.117 22.0514 62.1187C22.118 62.1171 22.1844 62.1102 22.2499 62.0981C22.3187 62.0888 22.3855 62.0678 22.4472 62.0361C22.5113 62.0158 22.5712 61.9843 22.6243 61.9432C22.6842 61.9081 22.7401 61.8666 22.7909 61.8194C22.9846 61.6237 23.0931 61.3605 23.0931 61.0865Z" fill="#0E5BF9"/>
<path d="M24.1871 27.9999H55.942C56.2227 27.9999 56.4919 27.8899 56.6905 27.6942C56.889 27.4984 57.0005 27.2328 57.0005 26.956V17.0659C57.0005 16.7891 56.889 16.5235 56.6905 16.3277C56.4919 16.132 56.2227 16.022 55.942 16.022H24.1871C23.9063 16.022 23.6371 16.132 23.4386 16.3277C23.2401 16.5235 23.1286 16.7891 23.1286 17.0659V26.956C23.1286 27.2328 23.2401 27.4984 23.4386 27.6942C23.6371 27.8899 23.9063 27.9999 24.1871 27.9999Z" fill="#9EE1FF"/>
<path fill-rule="evenodd" clip-rule="evenodd" d="M20.0589 47.9999H29.4055C29.6549 47.9998 29.8963 47.9128 30.0871 47.7543C30.2779 47.5957 30.4059 47.3759 30.4484 47.1334L32.6395 34.606C32.6656 34.5316 32.6582 34.4553 32.6179 34.3825C32.5775 34.3097 32.5051 34.2421 32.4058 34.1843C32.3065 34.1266 32.1826 34.0802 32.0428 34.0484C31.9031 34.0165 31.7507 34 31.5965 33.9999L23.4386 34.1843C23.2012 34.1844 22.9707 34.2235 22.7841 34.2954C22.5976 34.3672 22.8394 34.6775 22.7836 34.7904L19.404 46.9206C19.3661 47.0741 18.9906 47.0243 19.0246 47.1787C19.0587 47.333 19.1278 47.4778 19.2269 47.6019C19.326 47.7261 19.4523 47.8264 19.5965 47.8954C19.7406 47.9643 19.8987 48.0001 20.0589 47.9999ZM27.6347 41.4304C27.8332 41.2346 27.9447 40.9691 27.9447 40.6922C27.9447 40.4154 27.8332 40.1498 27.6347 39.954C27.4362 39.7583 27.167 39.6483 26.8862 39.6483H24.7692C24.4885 39.6483 24.2193 39.7583 24.0208 39.954C23.8223 40.1498 23.7107 40.4154 23.7107 40.6922C23.7107 40.9691 23.8223 41.2346 24.0208 41.4304C24.2193 41.6262 24.4885 41.7362 24.7692 41.7362H26.8862C27.167 41.7362 27.4362 41.6262 27.6347 41.4304Z" fill="#9EE1FF"/>
<path d="M27.9447 40.6922C27.9447 40.9691 27.8332 41.2346 27.6347 41.4304C27.4362 41.6262 27.167 41.7362 26.8862 41.7362H24.7692C24.4885 41.7362 24.2193 41.6262 24.0208 41.4304C23.8223 41.2346 23.7107 40.9691 23.7107 40.6922C23.7107 40.4154 23.8223 40.1498 24.0208 39.954C24.2193 39.7583 24.4885 39.6483 24.7692 39.6483H26.8862C27.167 39.6483 27.4362 39.7583 27.6347 39.954C27.8332 40.1498 27.9447 40.4154 27.9447 40.6922Z" fill="#9EE1FF"/>
<path fill-rule="evenodd" clip-rule="evenodd" d="M20.0852 48H29.6684C29.9242 47.9998 30.1717 47.9165 30.3673 47.7647C30.563 47.6128 30.6941 47.4022 30.7377 47.17L32.9843 35.17C33.0111 35.0264 33.0035 34.8792 32.9621 34.7386C32.9208 34.598 32.8466 34.4675 32.7447 34.356C32.6429 34.2446 32.5159 34.155 32.3725 34.0935C32.2292 34.032 32.0731 34.0001 31.915 34H23.2326C22.9892 34.0001 22.7528 34.0756 22.5615 34.2143C22.3703 34.3531 22.2352 34.5471 22.178 34.7651L19.0307 46.7651C18.9919 46.9122 18.9899 47.0654 19.0248 47.2133C19.0597 47.3612 19.1306 47.4998 19.2322 47.6188C19.3337 47.7377 19.4633 47.8338 19.6111 47.8999C19.7589 47.9659 19.921 48.0001 20.0852 48ZM27.8528 41.7071C28.0564 41.5196 28.1707 41.2652 28.1707 41C28.1707 40.7348 28.0564 40.4804 27.8528 40.2929C27.6493 40.1054 27.3732 40 27.0854 40H24.9148C24.627 40 24.3509 40.1054 24.1474 40.2929C23.9439 40.4804 23.8295 40.7348 23.8295 41C23.8295 41.2652 23.9439 41.5196 24.1474 41.7071C24.3509 41.8946 24.627 42 24.9148 42H27.0854C27.3732 42 27.6493 41.8946 27.8528 41.7071Z" fill="#0E5BF9"/>
</svg>
