<svg width="24" height="24" viewBox="0 0 24 24" fill="none" xmlns="http://www.w3.org/2000/svg">
<path d="M12 3C7.023 3 3 7.023 3 12C3 16.977 7.023 21 12 21C16.977 21 21 16.977 21 12C21 7.023 16.977 3 12 3ZM15.87 15.87C15.7867 15.9534 15.6878 16.0196 15.579 16.0648C15.4701 16.11 15.3534 16.1332 15.2355 16.1332C15.1176 16.1332 15.0009 16.11 14.892 16.0648C14.7832 16.0196 14.6843 15.9534 14.601 15.87L12 13.269L9.399 15.87C9.23072 16.0383 9.00248 16.1328 8.7645 16.1328C8.52652 16.1328 8.29828 16.0383 8.13 15.87C7.96172 15.7017 7.86718 15.4735 7.86718 15.2355C7.86718 15.1177 7.89039 15.001 7.93549 14.8921C7.98058 14.7832 8.04668 14.6843 8.13 14.601L10.731 12L8.13 9.399C7.96172 9.23072 7.86718 9.00248 7.86718 8.7645C7.86718 8.52652 7.96172 8.29828 8.13 8.13C8.29828 7.96172 8.52652 7.86718 8.7645 7.86718C9.00248 7.86718 9.23072 7.96172 9.399 8.13L12 10.731L14.601 8.13C14.6843 8.04668 14.7832 7.98058 14.8921 7.93549C15.001 7.89039 15.1177 7.86718 15.2355 7.86718C15.3533 7.86718 15.47 7.89039 15.5789 7.93549C15.6878 7.98058 15.7867 8.04668 15.87 8.13C15.9533 8.21332 16.0194 8.31224 16.0645 8.42111C16.1096 8.52998 16.1328 8.64666 16.1328 8.7645C16.1328 8.88234 16.1096 8.99902 16.0645 9.10789C16.0194 9.21676 15.9533 9.31568 15.87 9.399L13.269 12L15.87 14.601C16.212 14.943 16.212 15.519 15.87 15.87Z" fill="#292D32"/>
</svg>
