<svg width="24" height="24" viewBox="0 0 24 24" fill="none" xmlns="http://www.w3.org/2000/svg">
<path d="M12 3C17.5243 3 22 6.53125 22 10.8854C22 15.2396 17.5243 18.7708 12 18.7708C11.3924 18.7708 10.7986 18.7292 10.2222 18.6458C9.64583 19.0521 6.3125 21.3924 5.99653 21.4375C5.99653 21.4375 5.86806 21.4861 5.75694 21.4236C5.64583 21.3611 5.66667 21.191 5.66667 21.191C5.70139 20.9618 6.53472 18.0938 6.6875 17.5625C3.87153 16.1701 2 13.6979 2 10.8819C2 6.52778 6.47569 3 12 3ZM4.99306 8.52778C4.68056 8.52778 4.42708 8.78125 4.42708 9.09375C4.42708 9.40625 4.68056 9.65972 4.99306 9.65972H5.89236V13.0868C5.89236 13.3924 6.15278 13.6389 6.46875 13.6389C6.78472 13.6389 7.04514 13.3924 7.04514 13.0868V9.65972H7.94444C8.25694 9.65972 8.51042 9.40625 8.51042 9.09375C8.51042 8.78125 8.25694 8.52778 7.94444 8.52778H4.98958H4.99306ZM9.88195 8.52778C9.50695 8.53472 9.21181 8.81945 9.11458 9.09722L7.73611 12.7292C7.5625 13.2743 7.71528 13.4757 7.87153 13.5486C7.98264 13.6007 8.11111 13.6285 8.23958 13.6285C8.47917 13.6285 8.66319 13.5312 8.71875 13.375L9.00347 12.625H10.7639L11.0486 13.3715C11.1042 13.5278 11.2882 13.625 11.5278 13.625C11.6562 13.625 11.7812 13.5972 11.8958 13.5451C12.0556 13.4722 12.2083 13.2708 12.0312 12.7257L10.6528 9.09722C10.5556 8.81945 10.2604 8.53472 9.88195 8.52778ZM16.1632 8.52778C15.8438 8.52778 15.5868 8.78819 15.5868 9.10417V13.0521C15.5868 13.3715 15.8472 13.6285 16.1632 13.6285C16.4792 13.6285 16.7396 13.3681 16.7396 13.0521V11.7951L16.941 11.5938L18.2917 13.3854C18.4028 13.5313 18.5694 13.6146 18.7535 13.6146C18.8785 13.6146 19 13.5764 19.1007 13.5C19.2222 13.4063 19.3021 13.2708 19.3229 13.1181C19.3438 12.9653 19.3056 12.8125 19.2118 12.691L17.7917 10.809L19.1076 9.49653C19.1979 9.40625 19.2431 9.28125 19.2361 9.14583C19.2292 9.01042 19.1667 8.88194 19.066 8.78125C18.9583 8.67361 18.8125 8.61111 18.6701 8.61111C18.5451 8.61111 18.434 8.65625 18.3507 8.73958L16.7431 10.3507V9.11111C16.7431 8.79167 16.4826 8.53472 16.1667 8.53472L16.1632 8.52778ZM12.9931 8.52778C12.6701 8.52778 12.4062 8.78819 12.4062 9.10417V13.0208C12.4062 13.3125 12.6528 13.5486 12.9583 13.5521H14.809C15.1146 13.5521 15.3611 13.3125 15.3611 13.0208C15.3611 12.7292 15.1111 12.4931 14.809 12.4931H13.5833V9.10417C13.5833 8.78472 13.3194 8.52778 12.9931 8.52778ZM10.4583 11.6042H9.30556L9.88195 9.96875L10.4583 11.6042Z" fill="#131518"/>
</svg>
