<svg width="105" height="42" viewBox="0 0 105 42" fill="none" xmlns="http://www.w3.org/2000/svg">
<path d="M92.571 26.7646L92.5828 39.9411H87.6572L87.6416 26.7646H92.571Z" fill="#697487"/>
<path d="M90.1156 19.3525C90.8959 19.3525 91.5717 19.6385 92.1392 20.2143C92.7067 20.79 92.9942 21.466 92.9942 22.2497C92.9942 23.0855 92.7254 23.7726 92.184 24.3112C91.6464 24.8461 90.9556 25.1172 90.1118 25.1172C89.268 25.1172 88.5811 24.8498 88.0397 24.3112C87.4983 23.7726 87.2295 23.0892 87.2295 22.2497C87.2295 21.466 87.5133 20.7863 88.0845 20.2143C88.6557 19.6385 89.3278 19.3525 90.1081 19.3525H90.1156Z" fill="#697487"/>
<path d="M95.0527 20.0459H99.7469V25.6777H95.0527V20.0459Z" fill="#9BA4B3"/>
<path d="M95.0527 25.4824H99.7469H102.876V30.4127H99.7469C99.7469 30.4127 99.7469 33.4467 99.9424 34.0156C100.307 35.0756 100.87 35.0756 102.876 35.0756V40.2732C102.616 40.2837 102.034 40.2732 101.909 40.2732C100.776 40.2732 99.3141 40.1586 98.3093 39.6201C97.3044 39.085 96.6553 38.3589 96.0466 37.4382C95.2801 36.2638 95.0527 34.5579 95.0527 32.6192V25.4824Z" fill="#697487"/>
<path d="M33.4301 24.8184H38.1613H44.8639V29.1138H26.7275V24.8184H33.4301Z" fill="#697487"/>
<path d="M38.1829 24.8182H33.4102V21L38.1829 21.4773V24.8182Z" fill="#9BA4B3"/>
<path d="M35.5407 15.1008L41.8589 21.1908L45.3419 17.7634L35.5407 8.59082L26.251 17.7634L29.6096 21.131L35.5407 15.1008Z" fill="#697487"/>
<path d="M13.5741 36.9086H23.1959V40.8541H14.0144C11.2406 40.8579 9.16406 38.8876 9.16406 36.5028V31.7795H18.7859V30.2014H9.36452V25.7725L18.7859 26.0586C21.5636 26.0548 22.9954 27.9086 22.9954 30.2972V35.4454H13.5741V36.9086Z" fill="#697487"/>
<path d="M19.2871 9.19682L24.0224 9.18945V24.4247H19.2871V9.19682Z" fill="#697487"/>
<path d="M32.4553 31.3093V36.082H43.9099V40.834L31.867 40.8548C29.5189 40.8588 27.7166 39.1903 27.7132 36.4041L27.6826 30.832L32.4553 31.3093Z" fill="#697487"/>
<path d="M11.5733 14.3184L8.5918 17.3782L13.9921 22.9093L17.1827 19.5168L11.5733 14.3184Z" fill="#9BA4B3"/>
<path d="M4.07784 22.9091L0.955078 19.3958L10.3686 9.18065L13.3642 12.457L4.07784 22.9091Z" fill="#697487"/>
<path d="M67.4684 3.10921C65.8375 2.81862 64.8758 2.67644 63.0011 2.86421C61.5544 3.16634 60.6147 3.34147 58.6915 5.12619C54.8873 9.06867 54.8875 14.3187 57.9839 19.2963L73.9782 41.1769H84.4783L65.5812 16.2736C64.8427 15.2287 64.276 14.4683 64.1242 13.6891C64.0517 13.3166 64.0694 12.9684 64.2076 12.6264C64.3457 12.2844 64.6178 11.9148 65.1095 11.5199C65.5921 11.1871 66.1006 11.1369 66.6469 11.2786C67.2195 11.427 67.8269 11.7869 68.4266 12.2679C69.4673 13.192 70.8483 14.6614 71.3486 15.2732L76.1041 9.83014L75.4653 8.9056C75.0199 8.35313 74.3822 7.60715 73.6139 6.83485C72.0997 5.31271 70.0427 3.62635 67.8473 3.19735L67.4684 3.10921Z" fill="url(#paint0_radial_170_11061)"/>
<path d="M80.0723 12.5049H86.1475C86.507 12.505 86.8325 12.6904 86.9941 12.9844C87.1348 13.2377 87.131 13.5404 86.9912 13.791L86.9229 13.8955L69.8457 36.585H69.8447L69.8428 36.5879C68.631 38.3524 66.6674 39.4236 64.4531 39.5234L64.4521 39.5244C64.3405 39.531 64.2248 39.5303 64.1094 39.5303C61.7942 39.5303 59.5451 38.481 58.0391 36.6787V36.6777L57.9854 36.6318C57.966 36.6208 57.9425 36.6128 57.915 36.6055L50.7959 26.8818C50.6591 26.6066 50.6419 26.2557 50.8027 25.9688C50.9679 25.6771 51.2905 25.4943 51.6465 25.4941H57.8691C58.1372 25.4941 58.389 25.5983 58.5674 25.7754L58.6396 25.8564L62.0781 30.1221V30.123C62.3085 30.4206 62.5712 30.7809 62.8818 31.0381C63.1961 31.2982 63.5727 31.4635 64.0273 31.3545L64.0312 31.3535C64.272 31.2843 64.5215 31.1302 64.7549 30.915C64.8495 30.8298 64.9359 30.7329 65.0117 30.6299C65.0145 30.6268 65.0179 30.625 65.0195 30.623C65.0218 30.6204 65.024 30.6179 65.0254 30.6162L65.0283 30.6133L79.3057 12.8633C79.4841 12.6381 79.7689 12.5049 80.0723 12.5049Z" fill="#0E5BF9" stroke="url(#paint1_linear_170_11061)" stroke-width="0.190909"/>
<defs>
<radialGradient id="paint0_radial_170_11061" cx="0" cy="0" r="1" gradientUnits="userSpaceOnUse" gradientTransform="translate(70.6374 29.1141) rotate(57.7243) scale(10.7254 8.02646)">
<stop stop-color="#5D7EFF"/>
<stop offset="1" stop-color="#9AC6FF"/>
</radialGradient>
<linearGradient id="paint1_linear_170_11061" x1="68.8927" y1="17.6592" x2="68.8927" y2="39.626" gradientUnits="userSpaceOnUse">
<stop stop-color="#B3CAFF"/>
<stop offset="0.2" stop-color="#78A5FF"/>
<stop offset="0.411194" stop-color="#4569C6"/>
<stop offset="1" stop-color="#122E8D"/>
</linearGradient>
</defs>
</svg>
