<svg width="16" height="16" viewBox="0 0 16 16" fill="none" xmlns="http://www.w3.org/2000/svg">
<path d="M14.6689 11.8759L9.58829 3.10173C9.27125 2.5469 9.08895 2.24571 8.76398 2.09511C8.48657 1.9683 8.1616 1.9683 7.87626 2.09511C7.55129 2.23778 7.37691 2.5469 7.05194 3.10173L1.97132 11.8759C1.64635 12.4307 1.47198 12.7398 1.50368 13.0965C1.53539 13.4056 1.70184 13.6831 1.94754 13.8654C2.23288 14.0714 2.58956 14.0714 3.23157 14.0714H13.3928C14.0348 14.0714 14.3915 14.0714 14.6768 13.8654C14.9305 13.6831 15.089 13.4056 15.1207 13.0965C15.1603 12.7398 14.978 12.4387 14.661 11.8759H14.6689ZM8.32012 12.0582C8.05856 12.0582 7.84455 11.8442 7.84455 11.5826C7.84455 11.3211 8.05063 11.1071 8.32012 11.1071C8.58168 11.1071 8.79568 11.3211 8.79568 11.5826C8.79568 11.8442 8.58168 12.0582 8.32012 12.0582ZM8.79568 9.73586C8.79568 9.99742 8.58168 10.2114 8.32012 10.2114C8.05856 10.2114 7.84455 9.99742 7.84455 9.73586V6.64469C7.84455 6.38313 8.05856 6.16912 8.32012 6.16912C8.58168 6.16912 8.79568 6.38313 8.79568 6.64469V9.73586Z" fill="#78A5FF"/>
</svg>
