<svg width="80" height="80" viewBox="0 0 80 80" fill="none" xmlns="http://www.w3.org/2000/svg">
<circle cx="40.5" cy="40" r="39" fill="#C7D9FF"/>
<path d="M16.666 42.4922H49.1583V59.8214H16.666V42.4922Z" fill="#80D8FF"/>
<path d="M66.4876 25.9754C66.4973 25.9253 66.4973 25.8739 66.4876 25.8238C66.4348 25.6947 66.3576 25.577 66.2602 25.4772L51.0971 10.3141C50.9973 10.2167 50.8796 10.1395 50.7505 10.0867C50.7005 10.077 50.649 10.077 50.5989 10.0867C50.4889 10.0285 50.366 9.9987 50.2415 10H19.9154C19.6281 10 19.3526 10.1142 19.1495 10.3173C18.9464 10.5204 18.8323 10.7959 18.8323 11.0831V40.3262H15.5831C15.2958 40.3262 15.0203 40.4403 14.8172 40.6434C14.6141 40.8465 14.5 41.122 14.5 41.4092V60.9046C14.5 61.1919 14.6141 61.4673 14.8172 61.6705C15.0203 61.8736 15.2958 61.9877 15.5831 61.9877H18.8323V69.5692C18.8323 69.8565 18.9464 70.1319 19.1495 70.3351C19.3526 70.5382 19.6281 70.6523 19.9154 70.6523H65.4046C65.6918 70.6523 65.9673 70.5382 66.1704 70.3351C66.3735 70.1319 66.4876 69.8565 66.4876 69.5692V26.2462C66.5041 26.1567 66.5041 26.0649 66.4876 25.9754ZM51.3246 13.6933L62.7943 25.1631H51.3246V13.6933ZM16.6662 42.4923H49.1584V59.8215H16.6662V42.4923ZM20.9985 68.4861V61.9877H50.2415C50.5288 61.9877 50.8042 61.8736 51.0074 61.6705C51.2105 61.4673 51.3246 61.1919 51.3246 60.9046V41.4092C51.3246 41.122 51.2105 40.8465 51.0074 40.6434C50.8042 40.4403 50.5288 40.3262 50.2415 40.3262H20.9985V12.1662H49.1584V26.2462C49.1584 26.5334 49.2725 26.8089 49.4757 27.012C49.6788 27.2151 49.9543 27.3293 50.2415 27.3293H64.3215V68.4861H20.9985Z" fill="#0E5BF9"/>
<path d="M62.794 25.1631H51.3242V13.6934L62.794 25.1631Z" fill="#FAFCFF"/>
<path d="M64.3211 27.3291V68.486H20.998V61.9875H50.2411C50.5283 61.9875 50.8038 61.8734 51.0069 61.6703C51.2101 61.4672 51.3242 61.1917 51.3242 60.9044V41.4091C51.3242 41.1218 51.2101 40.8463 51.0069 40.6432C50.8038 40.4401 50.5283 40.326 50.2411 40.326H20.998V12.166H49.158V26.246C49.158 26.5332 49.2721 26.8087 49.4752 27.0119C49.6784 27.215 49.9538 27.3291 50.2411 27.3291H64.3211Z" fill="#FAFCFF"/>
<path d="M22.082 55.4892V46.8245H24.963C25.7027 46.7754 26.4347 46.9989 27.0209 47.4527C27.3167 47.71 27.551 48.0305 27.7066 48.3903C27.8622 48.7502 27.935 49.1405 27.9198 49.5322C27.9133 50.0386 27.7671 50.5333 27.4974 50.9619C27.2441 51.3844 26.8656 51.7175 26.4143 51.915C26.0227 52.0893 25.5973 52.1744 25.1688 52.1641H23.8691V55.4892H22.082ZM23.9124 50.5937H24.9305C25.2513 50.6105 25.566 50.5017 25.8078 50.2904C25.9149 50.1829 25.9982 50.054 26.0523 49.9122C26.1064 49.7704 26.1301 49.6188 26.1219 49.4673C26.1219 48.803 25.7248 48.4708 24.9305 48.4708H23.9124V50.5937ZM29.6094 55.4892V46.8245H32.8586C33.6731 46.7958 34.4713 47.0568 35.1114 47.561C35.6416 47.9923 36.0623 48.5429 36.339 49.1679C36.6157 49.7928 36.7406 50.4744 36.7036 51.1569C36.7129 51.9515 36.5269 52.7362 36.162 53.4421C35.8205 54.1022 35.2934 54.6481 34.6457 55.0126C33.8973 55.3719 33.0701 55.5358 32.2413 55.4892H29.6094ZM31.4398 53.8429H32.6095C33.0255 53.8581 33.4366 53.7487 33.7901 53.5288C34.1648 53.2474 34.4612 52.8747 34.6508 52.4462C34.8404 52.0176 34.917 51.5476 34.8732 51.081C34.91 50.6425 34.835 50.2018 34.655 49.8002C34.4751 49.3986 34.1961 49.0493 33.8442 48.7849C33.4955 48.5634 33.0873 48.4538 32.6745 48.4708H31.4398V53.8429ZM38.5881 55.4892V46.8245H43.5486V48.4708H40.4185V50.2362H43.2887V51.8825H40.4185V55.4892H38.5881Z" fill="#0E5BF9"/>
</svg>
